<svg width="24" height="24" viewBox="0 0 24 24" fill="none" xmlns="http://www.w3.org/2000/svg">
<path d="M8.3 3.1L5.15 1L2 3.1V18.85C2 20.5897 3.41031 22 5.15 22H19.85C21.5897 22 23 20.5897 23 18.85V15.7H20.9V3.1L17.75 1L14.6 3.1L11.45 1L8.3 3.1ZM18.8 15.7H6.2V18.85C6.2 19.4299 5.72989 19.9 5.15 19.9C4.57011 19.9 4.1 19.4299 4.1 18.85V4.22389L5.15 3.52388L8.3 5.62388L11.45 3.52388L14.6 5.62388L17.75 3.52388L18.8 4.22389V15.7ZM19.85 19.9H8.12075C8.23684 19.5716 8.3 19.2181 8.3 18.85V17.8H20.9V18.85C20.9 19.4299 20.4299 19.9 19.85 19.9Z" fill="#5C5C5C"/>
</svg>
