<svg width="24" height="25" viewBox="0 0 24 25" fill="none" xmlns="http://www.w3.org/2000/svg">
<rect x="0.5" y="1" width="23" height="23" rx="11.5" stroke="#444A54"/>
<path d="M19.375 11.875H12.625V5.125C12.625 4.77981 12.3452 4.5 12 4.5C11.6548 4.5 11.375 4.77981 11.375 5.125V11.875H4.625C4.27981 11.875 4 12.1548 4 12.5C4 12.8452 4.27981 13.125 4.625 13.125H11.375V19.875C11.375 20.2202 11.6548 20.5 12 20.5C12.3452 20.5 12.625 20.2202 12.625 19.875V13.125H19.375C19.7202 13.125 20 12.8452 20 12.5C20 12.1548 19.7202 11.875 19.375 11.875Z" fill="#444A54"/>
</svg>
