<svg width="24" height="24" viewBox="0 0 24 24" fill="none" xmlns="http://www.w3.org/2000/svg">
<path d="M3.375 0.103127C3.01875 0.239063 2.625 0.637501 2.49375 0.99844L2.39062 1.27031V12V22.7297L2.49375 23.0016C2.62969 23.3719 3.01875 23.7609 3.38906 23.8969L3.66094 24H12H20.3391L20.6109 23.8969C20.9813 23.7609 21.3703 23.3719 21.5063 23.0016L21.6094 22.7297L21.6 12.9469C21.5859 3.63281 21.5813 3.15469 21.5016 2.99531C21.4547 2.90156 20.8313 2.23125 20.1188 1.50938C19.1484 0.520313 18.7688 0.164064 18.6094 0.0937519C18.4031 0.00468826 18.3047 1.90735e-06 11.0156 0.00468826H3.63281L3.375 0.103127ZM18 1.59375C18 2.23125 18.0141 2.37656 18.0984 2.59688C18.225 2.93906 18.5484 3.29063 18.8813 3.45469C19.1391 3.58125 19.1813 3.58594 19.9594 3.6L20.7656 3.61875L20.7563 13.1484L20.7422 22.6828L20.6438 22.8141C20.5922 22.8844 20.475 22.9922 20.3906 23.0531L20.2359 23.1563H12H3.76406L3.60938 23.0484C3.525 22.9922 3.40781 22.8844 3.35625 22.8141L3.25781 22.6828V12V1.31719L3.35625 1.18594C3.40781 1.11563 3.525 1.00781 3.60938 0.946877L3.76406 0.843752H10.8797H18V1.59375ZM19.8422 2.75625C19.4719 2.775 19.2938 2.7375 19.125 2.59219C18.9 2.40469 18.8438 2.25 18.8438 1.81875V1.43438L19.4766 2.08594L20.1141 2.74219L19.8422 2.75625Z" fill="#726758"/>
<path d="M9.77383 4.40625L9.34727 4.82812L9.23477 4.71094C9.17383 4.64531 9.02852 4.54688 8.91133 4.49062C8.70039 4.3875 8.6582 4.38281 7.1957 4.38281C5.54102 4.38281 5.53164 4.38281 5.18477 4.6875C5.09102 4.77187 4.96445 4.93125 4.9082 5.03437C4.80977 5.21719 4.80508 5.2875 4.79102 6.73594C4.77695 8.19375 4.78164 8.25469 4.88008 8.47969C5.01133 8.79375 5.31602 9.06562 5.63008 9.15937C5.99102 9.26719 8.40039 9.26719 8.7707 9.15937C9.08477 9.06562 9.46445 8.70469 9.55352 8.40937C9.59102 8.27812 9.60977 7.82812 9.60977 7.00312V5.78906L10.1957 5.20312C10.6832 4.71562 10.791 4.58437 10.8145 4.44375C10.8379 4.29375 10.8191 4.25156 10.6973 4.125C10.5895 4.01719 10.5098 3.98438 10.3785 3.98438C10.2238 3.98438 10.1629 4.02656 9.77383 4.40625ZM8.63477 5.33437L8.74258 5.4375L8.1707 6.00937L7.59883 6.58125L7.29414 6.29062C7.04102 6.04687 6.96602 6 6.83008 6C6.5957 6 6.5207 6.0375 6.44102 6.19687C6.30977 6.45 6.38008 6.59062 6.88164 7.0875C7.3457 7.55156 7.52852 7.66406 7.70664 7.6125C7.7582 7.59844 8.0207 7.36875 8.28789 7.11094L8.76602 6.63281V7.39219V8.14687L8.6207 8.27344L8.4707 8.39531L7.16289 8.38125L5.85039 8.36719L5.73789 8.23594L5.62539 8.10469V6.80625C5.62539 5.40937 5.63477 5.34844 5.87852 5.25C5.93008 5.22656 6.55352 5.2125 7.25195 5.21719C8.5082 5.22656 8.53164 5.22656 8.63477 5.33437Z" fill="#726758"/>
<path d="M11.8267 5.22187C11.5548 5.34375 11.4892 5.68125 11.6954 5.88281L11.8079 6H15.3985H18.9892L19.1017 5.88281C19.2564 5.73281 19.2564 5.48906 19.1064 5.31094L18.9939 5.17969L15.4829 5.17031C12.572 5.16094 11.9532 5.17031 11.8267 5.22187Z" fill="#726758"/>
<path d="M11.7141 7.30781C11.5688 7.45312 11.5407 7.62187 11.6344 7.79531C11.7516 8.01562 11.7188 8.01094 14.0063 8.01562H16.1766L16.2891 7.89844C16.3688 7.82344 16.4063 7.73438 16.4063 7.62187C16.4063 7.1625 16.4579 7.17187 13.9688 7.17187H11.8501L11.7141 7.30781Z" fill="#726758"/>
<path d="M5.54105 10.0641C5.27387 10.1578 4.95043 10.4906 4.85668 10.7672C4.74887 11.0812 4.74418 13.7156 4.85199 14.0203C4.95043 14.3016 5.12387 14.5078 5.38168 14.6578L5.60199 14.7891L7.1348 14.8031C8.5598 14.8172 8.68637 14.8125 8.86918 14.7281C9.16449 14.5969 9.35199 14.4187 9.48793 14.1469L9.6098 13.9031V12.3937V10.8844L9.47855 10.6359C9.33324 10.3547 9.04262 10.1062 8.77543 10.0312C8.6723 10.0031 8.02543 9.98437 7.1723 9.98906C6.02387 9.98906 5.70512 10.0078 5.54105 10.0641ZM8.64887 10.9453L8.76605 11.0578V12.3984V13.7391L8.64887 13.8516L8.53637 13.9687H7.19574H5.85512L5.74262 13.8516L5.62543 13.7391V12.3984V11.0578L5.74262 10.9453L5.85512 10.8281H7.19574H8.53637L8.64887 10.9453Z" fill="#726758"/>
<path d="M11.7841 10.8375C11.5498 10.95 11.517 11.2875 11.7138 11.4891L11.8498 11.625H15.3982H18.9466L19.0826 11.4891C19.2607 11.3062 19.2701 11.0766 19.0966 10.9031L18.9701 10.7812L15.4263 10.7859C13.0873 10.7859 11.8498 10.8047 11.7841 10.8375Z" fill="#726758"/>
<path d="M11.6957 12.9141C11.541 13.0641 11.541 13.3078 11.691 13.4859L11.8035 13.6172H13.9832H16.1629L16.2848 13.5047C16.4488 13.35 16.4535 13.0453 16.2988 12.9C16.191 12.7969 16.1816 12.7969 13.9973 12.7969H11.8082L11.6957 12.9141Z" fill="#726758"/>
<path d="M5.65817 15.6281C5.27379 15.7312 4.9316 16.0781 4.82379 16.4625C4.79567 16.5797 4.7816 17.1891 4.79098 18.1078C4.80504 19.5094 4.80973 19.5797 4.90817 19.7625C4.96442 19.8656 5.09098 20.025 5.18473 20.1094C5.5316 20.4141 5.54098 20.4141 7.17223 20.4141C8.48942 20.4141 8.67223 20.4047 8.8691 20.3297C9.14098 20.2266 9.47379 19.8703 9.55348 19.6031C9.63317 19.3406 9.63317 16.6547 9.55348 16.3875C9.46442 16.0922 9.08473 15.7312 8.77067 15.6375C8.43785 15.5391 6.01442 15.5344 5.65817 15.6281ZM8.6441 16.5422L8.76598 16.6547V18V19.3453L8.6441 19.4578L8.52223 19.5703H7.18629H5.85035L5.73785 19.4391L5.62535 19.3078V18.0094C5.62535 16.6125 5.63473 16.5516 5.87848 16.4531C5.93004 16.4297 6.54879 16.4156 7.25192 16.4203L8.52223 16.4297L8.6441 16.5422Z" fill="#726758"/>
<path d="M11.8736 16.3922C11.597 16.4484 11.4845 16.8797 11.6954 17.0859L11.8079 17.2031H15.3986H18.9892L19.1017 17.0859C19.2564 16.9359 19.2564 16.6922 19.1064 16.5141L18.9939 16.3828L15.4829 16.3781C13.5564 16.3734 11.9298 16.3828 11.8736 16.3922Z" fill="#726758"/>
<path d="M11.7184 18.5109C11.5075 18.7172 11.5497 19.0547 11.7981 19.1672C11.8731 19.2047 12.5809 19.2188 14.0434 19.2188H16.1763L16.2888 19.1016C16.4341 18.9609 16.4481 18.6703 16.3169 18.5109L16.2278 18.3984L14.0388 18.3844L11.8544 18.3703L11.7184 18.5109Z" fill="#726758"/>
</svg>
