<svg width="33" height="32" viewBox="0 0 33 32" fill="none" xmlns="http://www.w3.org/2000/svg">
<path d="M14 7.5H16C16.1326 7.5 16.2598 7.44732 16.3536 7.35355C16.4473 7.25979 16.5 7.13261 16.5 7V4C16.5 3.86739 16.4473 3.74021 16.3536 3.64645C16.2598 3.55268 16.1326 3.5 16 3.5H14C13.8674 3.5 13.7402 3.55268 13.6464 3.64645C13.5527 3.74021 13.5 3.86739 13.5 4V7C13.5 7.13261 13.5527 7.25979 13.6464 7.35355C13.7402 7.44732 13.8674 7.5 14 7.5ZM14.5 4.5H15.5V6.5H14.5V4.5Z" fill="#444A54"/>
<path d="M18 7.5H20C20.1326 7.5 20.2598 7.44732 20.3536 7.35355C20.4473 7.25979 20.5 7.13261 20.5 7V4C20.5 3.86739 20.4473 3.74021 20.3536 3.64645C20.2598 3.55268 20.1326 3.5 20 3.5H18C17.8674 3.5 17.7402 3.55268 17.6464 3.64645C17.5527 3.74021 17.5 3.86739 17.5 4V7C17.5 7.13261 17.5527 7.25979 17.6464 7.35355C17.7402 7.44732 17.8674 7.5 18 7.5ZM18.5 4.5H19.5V6.5H18.5V4.5Z" fill="#444A54"/>
<path d="M22 7.5H24C24.1326 7.5 24.2598 7.44732 24.3536 7.35355C24.4473 7.25979 24.5 7.13261 24.5 7V4C24.5 3.86739 24.4473 3.74021 24.3536 3.64645C24.2598 3.55268 24.1326 3.5 24 3.5H22C21.8674 3.5 21.7402 3.55268 21.6464 3.64645C21.5527 3.74021 21.5 3.86739 21.5 4V7C21.5 7.13261 21.5527 7.25979 21.6464 7.35355C21.7402 7.44732 21.8674 7.5 22 7.5ZM22.5 4.5H23.5V6.5H22.5V4.5Z" fill="#444A54"/>
<path d="M14 12.5H16C16.1326 12.5 16.2598 12.4473 16.3536 12.3536C16.4473 12.2598 16.5 12.1326 16.5 12V9C16.5 8.86739 16.4473 8.74021 16.3536 8.64645C16.2598 8.55268 16.1326 8.5 16 8.5H14C13.8674 8.5 13.7402 8.55268 13.6464 8.64645C13.5527 8.74021 13.5 8.86739 13.5 9V12C13.5 12.1326 13.5527 12.2598 13.6464 12.3536C13.7402 12.4473 13.8674 12.5 14 12.5ZM14.5 9.5H15.5V11.5H14.5V9.5Z" fill="#444A54"/>
<path d="M18 12.5H20C20.1326 12.5 20.2598 12.4473 20.3536 12.3536C20.4473 12.2598 20.5 12.1326 20.5 12V9C20.5 8.86739 20.4473 8.74021 20.3536 8.64645C20.2598 8.55268 20.1326 8.5 20 8.5H18C17.8674 8.5 17.7402 8.55268 17.6464 8.64645C17.5527 8.74021 17.5 8.86739 17.5 9V12C17.5 12.1326 17.5527 12.2598 17.6464 12.3536C17.7402 12.4473 17.8674 12.5 18 12.5ZM18.5 9.5H19.5V11.5H18.5V9.5Z" fill="#444A54"/>
<path d="M22 12.5H24C24.1326 12.5 24.2598 12.4473 24.3536 12.3536C24.4473 12.2598 24.5 12.1326 24.5 12V9C24.5 8.86739 24.4473 8.74021 24.3536 8.64645C24.2598 8.55268 24.1326 8.5 24 8.5H22C21.8674 8.5 21.7402 8.55268 21.6464 8.64645C21.5527 8.74021 21.5 8.86739 21.5 9V12C21.5 12.1326 21.5527 12.2598 21.6464 12.3536C21.7402 12.4473 21.8674 12.5 22 12.5ZM22.5 9.5H23.5V11.5H22.5V9.5Z" fill="#444A54"/>
<path d="M10 7.5H12C12.1326 7.5 12.2598 7.44732 12.3536 7.35355C12.4473 7.25979 12.5 7.13261 12.5 7V4C12.5 3.86739 12.4473 3.74021 12.3536 3.64645C12.2598 3.55268 12.1326 3.5 12 3.5H10C9.86739 3.5 9.74021 3.55268 9.64645 3.64645C9.55268 3.74021 9.5 3.86739 9.5 4V7C9.5 7.13261 9.55268 7.25979 9.64645 7.35355C9.74021 7.44732 9.86739 7.5 10 7.5ZM10.5 4.5H11.5V6.5H10.5V4.5Z" fill="#444A54"/>
<path d="M10 12.5H12C12.1326 12.5 12.2598 12.4473 12.3536 12.3536C12.4473 12.2598 12.5 12.1326 12.5 12V9C12.5 8.86739 12.4473 8.74021 12.3536 8.64645C12.2598 8.55268 12.1326 8.5 12 8.5H10C9.86739 8.5 9.74021 8.55268 9.64645 8.64645C9.55268 8.74021 9.5 8.86739 9.5 9V12C9.5 12.1326 9.55268 12.2598 9.64645 12.3536C9.74021 12.4473 9.86739 12.5 10 12.5ZM10.5 9.5H11.5V11.5H10.5V9.5Z" fill="#444A54"/>
<path d="M14 17.5H16C16.1326 17.5 16.2598 17.4473 16.3536 17.3536C16.4473 17.2598 16.5 17.1326 16.5 17V14C16.5 13.8674 16.4473 13.7402 16.3536 13.6464C16.2598 13.5527 16.1326 13.5 16 13.5H14C13.8674 13.5 13.7402 13.5527 13.6464 13.6464C13.5527 13.7402 13.5 13.8674 13.5 14V17C13.5 17.1326 13.5527 17.2598 13.6464 17.3536C13.7402 17.4473 13.8674 17.5 14 17.5ZM14.5 14.5H15.5V16.5H14.5V14.5Z" fill="#444A54"/>
<path d="M10 17.5H12C12.1326 17.5 12.2598 17.4473 12.3536 17.3536C12.4473 17.2598 12.5 17.1326 12.5 17V14C12.5 13.8674 12.4473 13.7402 12.3536 13.6464C12.2598 13.5527 12.1326 13.5 12 13.5H10C9.86739 13.5 9.74021 13.5527 9.64645 13.6464C9.55268 13.7402 9.5 13.8674 9.5 14V17C9.5 17.1326 9.55268 17.2598 9.64645 17.3536C9.74021 17.4473 9.86739 17.5 10 17.5ZM10.5 14.5H11.5V16.5H10.5V14.5Z" fill="#444A54"/>
<path d="M18 17.5H20C20.1326 17.5 20.2598 17.4473 20.3536 17.3536C20.4473 17.2598 20.5 17.1326 20.5 17V14C20.5 13.8674 20.4473 13.7402 20.3536 13.6464C20.2598 13.5527 20.1326 13.5 20 13.5H18C17.8674 13.5 17.7402 13.5527 17.6464 13.6464C17.5527 13.7402 17.5 13.8674 17.5 14V17C17.5 17.1326 17.5527 17.2598 17.6464 17.3536C17.7402 17.4473 17.8674 17.5 18 17.5ZM18.5 14.5H19.5V16.5H18.5V14.5Z" fill="#444A54"/>
<path d="M22 17.5H24C24.1326 17.5 24.2598 17.4473 24.3536 17.3536C24.4473 17.2598 24.5 17.1326 24.5 17V14C24.5 13.8674 24.4473 13.7402 24.3536 13.6464C24.2598 13.5527 24.1326 13.5 24 13.5H22C21.8674 13.5 21.7402 13.5527 21.6464 13.6464C21.5527 13.7402 21.5 13.8674 21.5 14V17C21.5 17.1326 21.5527 17.2598 21.6464 17.3536C21.7402 17.4473 21.8674 17.5 22 17.5ZM22.5 14.5H23.5V16.5H22.5V14.5Z" fill="#444A54"/>
<path d="M14 22.5H16C16.1326 22.5 16.2598 22.4473 16.3536 22.3536C16.4473 22.2598 16.5 22.1326 16.5 22V19C16.5 18.8674 16.4473 18.7402 16.3536 18.6464C16.2598 18.5527 16.1326 18.5 16 18.5H14C13.8674 18.5 13.7402 18.5527 13.6464 18.6464C13.5527 18.7402 13.5 18.8674 13.5 19V22C13.5 22.1326 13.5527 22.2598 13.6464 22.3536C13.7402 22.4473 13.8674 22.5 14 22.5ZM14.5 19.5H15.5V21.5H14.5V19.5Z" fill="#444A54"/>
<path d="M10 22.5H12C12.1326 22.5 12.2598 22.4473 12.3536 22.3536C12.4473 22.2598 12.5 22.1326 12.5 22V19C12.5 18.8674 12.4473 18.7402 12.3536 18.6464C12.2598 18.5527 12.1326 18.5 12 18.5H10C9.86739 18.5 9.74021 18.5527 9.64645 18.6464C9.55268 18.7402 9.5 18.8674 9.5 19V22C9.5 22.1326 9.55268 22.2598 9.64645 22.3536C9.74021 22.4473 9.86739 22.5 10 22.5ZM10.5 19.5H11.5V21.5H10.5V19.5Z" fill="#444A54"/>
<path d="M18 22.5H20C20.1326 22.5 20.2598 22.4473 20.3536 22.3536C20.4473 22.2598 20.5 22.1326 20.5 22V19C20.5 18.8674 20.4473 18.7402 20.3536 18.6464C20.2598 18.5527 20.1326 18.5 20 18.5H18C17.8674 18.5 17.7402 18.5527 17.6464 18.6464C17.5527 18.7402 17.5 18.8674 17.5 19V22C17.5 22.1326 17.5527 22.2598 17.6464 22.3536C17.7402 22.4473 17.8674 22.5 18 22.5ZM18.5 19.5H19.5V21.5H18.5V19.5Z" fill="#444A54"/>
<path d="M22 22.5H24C24.1326 22.5 24.2598 22.4473 24.3536 22.3536C24.4473 22.2598 24.5 22.1326 24.5 22V19C24.5 18.8674 24.4473 18.7402 24.3536 18.6464C24.2598 18.5527 24.1326 18.5 24 18.5H22C21.8674 18.5 21.7402 18.5527 21.6464 18.6464C21.5527 18.7402 21.5 18.8674 21.5 19V22C21.5 22.1326 21.5527 22.2598 21.6464 22.3536C21.7402 22.4473 21.8674 22.5 22 22.5ZM22.5 19.5H23.5V21.5H22.5V19.5Z" fill="#444A54"/>
<path d="M31 19.5H26.5V2C26.5 1.86739 26.4473 1.74021 26.3536 1.64645C26.2598 1.55268 26.1326 1.5 26 1.5H8C7.86739 1.5 7.74021 1.55268 7.64645 1.64645C7.55268 1.74021 7.5 1.86739 7.5 2V19.942C7.07958 19.6716 6.59405 19.5194 6.09448 19.5017C5.59491 19.4839 5.09979 19.6011 4.6612 19.8409C4.22261 20.0807 3.85677 20.4344 3.60218 20.8646C3.3476 21.2948 3.21367 21.7856 3.2145 22.2855C3.21502 22.5632 3.25802 22.8393 3.342 23.104C2.72529 23.325 2.20648 23.7568 1.87712 24.3231C1.54776 24.8895 1.42903 25.5539 1.54187 26.1992C1.6547 26.8446 1.99186 27.4293 2.49385 27.8503C2.99583 28.2712 3.63037 28.5013 4.2855 28.5C4.70753 28.4974 5.12322 28.3971 5.5 28.207V30C5.5 30.1326 5.55268 30.2598 5.64645 30.3536C5.74021 30.4473 5.86739 30.5 6 30.5C6.13261 30.5 6.25979 30.4473 6.35355 30.3536C6.44732 30.2598 6.5 30.1326 6.5 30V28.207C6.81278 28.3614 7.15221 28.4546 7.5 28.4815V30C7.5 30.1326 7.55268 30.2598 7.64645 30.3536C7.74021 30.4473 7.86739 30.5 8 30.5H30C30.1326 30.5 30.2598 30.4473 30.3536 30.3536C30.4473 30.2598 30.5 30.1326 30.5 30V22.5H31C31.1326 22.5 31.2598 22.4473 31.3536 22.3536C31.4473 22.2598 31.5 22.1326 31.5 22V20C31.5 19.8674 31.4473 19.7402 31.3536 19.6464C31.2598 19.5527 31.1326 19.5 31 19.5ZM6 25.5C5.86739 25.5 5.74021 25.5527 5.64645 25.6464C5.55268 25.7402 5.5 25.8674 5.5 26V27C5.17582 27.3186 4.74003 27.498 4.2855 27.5C3.82844 27.5018 3.38822 27.3276 3.05609 27.0136C2.72396 26.6996 2.52539 26.2698 2.50154 25.8134C2.47769 25.3569 2.63038 24.9088 2.92798 24.5619C3.22557 24.215 3.64524 23.9959 4.1 23.95C4.18339 23.9411 4.2632 23.9113 4.33207 23.8634C4.40093 23.8156 4.45666 23.7511 4.49411 23.6761C4.53155 23.6011 4.54952 23.5178 4.54636 23.434C4.54319 23.3502 4.519 23.2685 4.476 23.1965C4.30784 22.9223 4.21824 22.6072 4.217 22.2855C4.217 21.812 4.40511 21.3578 4.73996 21.023C5.07481 20.6881 5.52896 20.5 6.0025 20.5C6.47604 20.5 6.93019 20.6881 7.26504 21.023C7.59988 21.3578 7.788 21.812 7.788 22.2855C7.78676 22.6072 7.69716 22.9223 7.529 23.1965C7.486 23.2685 7.46181 23.3502 7.45864 23.434C7.45548 23.5178 7.47345 23.6011 7.51089 23.6761C7.54834 23.7511 7.60406 23.8156 7.67294 23.8634C7.74181 23.9113 7.82161 23.9411 7.905 23.95C8.36 23.9959 8.77987 24.2151 9.07751 24.5623C9.37515 24.9095 9.5277 25.358 9.50352 25.8146C9.47933 26.2713 9.28027 26.7011 8.94763 27.0149C8.61498 27.3287 8.1743 27.5024 7.717 27.5C7.2616 27.4987 6.8248 27.3192 6.5 27V26C6.5 25.8674 6.44732 25.7402 6.35355 25.6464C6.25979 25.5527 6.13261 25.5 6 25.5ZM19.5 29.5H14.5V24.5H19.5V29.5ZM25.5 29.5H20.5V24C20.5 23.8674 20.4473 23.7402 20.3536 23.6464C20.2598 23.5527 20.1326 23.5 20 23.5H14C13.8674 23.5 13.7402 23.5527 13.6464 23.6464C13.5527 23.7402 13.5 23.8674 13.5 24V29.5H8.5V28.3855C9.06328 28.2212 9.56006 27.8827 9.91909 27.4186C10.2781 26.9545 10.4809 26.3887 10.4985 25.8022C10.516 25.2157 10.3474 24.6387 10.0168 24.154C9.68611 23.6692 9.21045 23.3017 8.658 23.104C8.74198 22.8393 8.78498 22.5632 8.7855 22.2855C8.78507 21.8622 8.68739 21.4446 8.5 21.065V2.5H25.5V29.5ZM29.5 29.5H26.5V22.5H29.5V29.5ZM30.5 21.5H26.5V20.5H30.5V21.5Z" fill="#444A54"/>
</svg>
