<svg width="31" height="30" viewBox="0 0 31 30" fill="none" xmlns="http://www.w3.org/2000/svg">
<path d="M23.0018 18.6972C22.1205 18.6972 21.4036 18.031 21.4036 17.2128C21.4036 16.3947 22.1205 15.7278 23.0018 15.7278C23.883 15.7278 24.5999 16.3941 24.5999 17.2128C24.5999 18.0316 23.883 18.6972 23.0018 18.6972ZM23.0018 16.7278C22.6718 16.7278 22.4036 16.9453 22.4036 17.2128C22.4036 17.4803 22.6718 17.6972 23.0018 17.6972C23.3318 17.6972 23.5999 17.4797 23.5999 17.2128C23.5999 16.946 23.3311 16.7278 23.0018 16.7278Z" fill="#444A54"/>
<path d="M6.9549 18.6972C6.07365 18.6972 5.35677 18.031 5.35677 17.2128C5.35677 16.3947 6.07365 15.7278 6.9549 15.7278C7.83615 15.7278 8.55302 16.3941 8.55302 17.2128C8.55302 18.0316 7.83615 18.6972 6.9549 18.6972ZM6.9549 16.7278C6.6249 16.7278 6.35677 16.9453 6.35677 17.2128C6.35677 17.4803 6.6249 17.6972 6.9549 17.6972C7.2849 17.6972 7.55302 17.4797 7.55302 17.2128C7.55302 16.946 7.2849 16.7278 6.9549 16.7278Z" fill="#444A54"/>
<path d="M26.418 29.501C26.2854 29.501 26.1582 29.4483 26.0645 29.3545C25.9707 29.2608 25.918 29.1336 25.918 29.001V20.8035H20.0855V29.001C20.0855 29.1336 20.0328 29.2608 19.9391 29.3545C19.8453 29.4483 19.7181 29.501 19.5855 29.501C19.4529 29.501 19.3257 29.4483 19.232 29.3545C19.1382 29.2608 19.0855 29.1336 19.0855 29.001V20.3035C19.0855 20.1709 19.1382 20.0437 19.232 19.9499C19.3257 19.8561 19.4529 19.8035 19.5855 19.8035H26.418C26.5506 19.8035 26.6778 19.8561 26.7716 19.9499C26.8653 20.0437 26.918 20.1709 26.918 20.3035V29.001C26.918 29.1336 26.8653 29.2608 26.7716 29.3545C26.6778 29.4483 26.5506 29.501 26.418 29.501Z" fill="#444A54"/>
<path d="M10.373 29.501C10.2404 29.501 10.1132 29.4483 10.0195 29.3545C9.9257 29.2608 9.87302 29.1336 9.87302 29.001V20.8035H4.03864V29.001C4.03864 29.1336 3.98596 29.2608 3.8922 29.3545C3.79843 29.4483 3.67125 29.501 3.53864 29.501C3.40603 29.501 3.27886 29.4483 3.18509 29.3545C3.09132 29.2608 3.03864 29.1336 3.03864 29.001V20.3035C3.03864 20.1709 3.09132 20.0437 3.18509 19.9499C3.27886 19.8561 3.40603 19.8035 3.53864 19.8035H10.373C10.5056 19.8035 10.6328 19.8561 10.7266 19.9499C10.8203 20.0437 10.873 20.1709 10.873 20.3035V29.001C10.873 29.1336 10.8203 29.2608 10.7266 29.3545C10.6328 29.4483 10.5056 29.501 10.373 29.501Z" fill="#444A54"/>
<path d="M14.978 24.7422C14.8454 24.7422 14.7182 24.6896 14.6245 24.5958C14.5307 24.502 14.478 24.3749 14.478 24.2422V21.1797C14.478 21.0471 14.5307 20.92 14.6245 20.8262C14.7182 20.7324 14.8454 20.6797 14.978 20.6797C15.1106 20.6797 15.2378 20.7324 15.3316 20.8262C15.4253 20.92 15.478 21.0471 15.478 21.1797V24.2422C15.478 24.3749 15.4253 24.502 15.3316 24.5958C15.2378 24.6896 15.1106 24.7422 14.978 24.7422Z" fill="#444A54"/>
<path d="M17.6624 24.7422H12.2943C12.1617 24.7422 12.0345 24.6896 11.9407 24.5958C11.847 24.502 11.7943 24.3749 11.7943 24.2422V21.1797C11.7943 21.0471 11.847 20.92 11.9407 20.8262C12.0345 20.7324 12.1617 20.6797 12.2943 20.6797H17.6624C17.795 20.6797 17.9222 20.7324 18.016 20.8262C18.1097 20.92 18.1624 21.0471 18.1624 21.1797V24.2422C18.1624 24.3749 18.1097 24.502 18.016 24.5958C17.9222 24.6896 17.795 24.7422 17.6624 24.7422ZM12.7943 23.7422H17.1624V21.6797H12.7943V23.7422Z" fill="#444A54"/>
<path d="M21.8424 12.1053C21.7098 12.1053 21.5826 12.0527 21.4888 11.9589C21.3951 11.8651 21.3424 11.738 21.3424 11.6053V8.54285C21.3424 8.41024 21.3951 8.28306 21.4888 8.18929C21.5826 8.09553 21.7098 8.04285 21.8424 8.04285C21.975 8.04285 22.1022 8.09553 22.196 8.18929C22.2897 8.28306 22.3424 8.41024 22.3424 8.54285V11.6053C22.3424 11.738 22.2897 11.8651 22.196 11.9589C22.1022 12.0527 21.975 12.1053 21.8424 12.1053Z" fill="#444A54"/>
<path d="M28.9193 29.501H0.981773C0.849165 29.501 0.721988 29.4483 0.62822 29.3545C0.534452 29.2607 0.481773 29.1336 0.481773 29.001V14.1216C0.481773 13.989 0.534452 13.8618 0.62822 13.768C0.721988 13.6743 0.849165 13.6216 0.981773 13.6216H28.9193C29.0519 13.6216 29.1791 13.6743 29.2728 13.768C29.3666 13.8618 29.4193 13.989 29.4193 14.1216V29.001C29.4193 29.1336 29.3666 29.2607 29.2728 29.3545C29.1791 29.4483 29.0519 29.501 28.9193 29.501ZM1.48177 28.501H28.4193V14.6216H1.48177V28.501Z" fill="#444A54"/>
<path d="M3.29678 14.6216C3.16417 14.6216 3.03699 14.5689 2.94322 14.4752C2.84945 14.3814 2.79678 14.2542 2.79678 14.1216V10.3397C2.79678 10.2071 2.84945 10.0799 2.94322 9.98617C3.03699 9.8924 3.16417 9.83972 3.29678 9.83972C3.42938 9.83972 3.55656 9.8924 3.65033 9.98617C3.7441 10.0799 3.79678 10.2071 3.79678 10.3397V14.1216C3.79678 14.2542 3.7441 14.3814 3.65033 14.4752C3.55656 14.5689 3.42938 14.6216 3.29678 14.6216Z" fill="#444A54"/>
<path d="M14.7661 10.8397H2.01239C1.92261 10.8396 1.83451 10.8154 1.75733 10.7695C1.68016 10.7236 1.61676 10.6578 1.5738 10.579C1.53083 10.5002 1.50988 10.4112 1.51316 10.3215C1.51643 10.2318 1.5438 10.1446 1.59239 10.0691L3.24239 7.5066C3.2877 7.43621 3.34995 7.37833 3.42344 7.33825C3.49694 7.29817 3.57931 7.27719 3.66302 7.27722H14.7661C14.8988 7.27722 15.0259 7.3299 15.1197 7.42367C15.2135 7.51744 15.2661 7.64461 15.2661 7.77722C15.2661 7.90983 15.2135 8.03701 15.1197 8.13078C15.0259 8.22454 14.8988 8.27722 14.7661 8.27722H3.93552L2.92927 9.83972H14.7661C14.8988 9.83972 15.0259 9.8924 15.1197 9.98617C15.2135 10.0799 15.2661 10.2071 15.2661 10.3397C15.2661 10.4723 15.2135 10.5995 15.1197 10.6933C15.0259 10.787 14.8988 10.8397 14.7661 10.8397Z" fill="#444A54"/>
<path d="M24.5268 12.1053H19.158C19.0254 12.1053 18.8982 12.0527 18.8045 11.9589C18.7107 11.8651 18.658 11.738 18.658 11.6053V8.54285C18.658 8.41024 18.7107 8.28306 18.8045 8.18929C18.8982 8.09553 19.0254 8.04285 19.158 8.04285H24.5268C24.6594 8.04285 24.7866 8.09553 24.8803 8.18929C24.9741 8.28306 25.0268 8.41024 25.0268 8.54285V11.6053C25.0268 11.738 24.9741 11.8651 24.8803 11.9589C24.7866 12.0527 24.6594 12.1053 24.5268 12.1053ZM19.658 11.1053H24.0268V9.04285H19.658V11.1053Z" fill="#444A54"/>
<path d="M28.9193 14.6216H14.7662C14.6335 14.6216 14.5064 14.5689 14.4126 14.4752C14.3188 14.3814 14.2662 14.2542 14.2662 14.1216V6.026C14.2662 5.89339 14.3188 5.76622 14.4126 5.67245C14.5064 5.57868 14.6335 5.526 14.7662 5.526H28.9193C29.0519 5.526 29.1791 5.57868 29.2728 5.67245C29.3666 5.76622 29.4193 5.89339 29.4193 6.026V14.1216C29.4193 14.2542 29.3666 14.3814 29.2728 14.4752C29.1791 14.5689 29.0519 14.6216 28.9193 14.6216ZM15.2662 13.6216H28.4193V6.526H15.2662V13.6216Z" fill="#444A54"/>
<path d="M30.0174 6.52598H28.9193C28.8187 6.52592 28.7205 6.49553 28.6374 6.43877C28.5544 6.38202 28.4904 6.30154 28.4538 6.20785C28.4172 6.11415 28.4097 6.01161 28.4324 5.9136C28.455 5.81559 28.5066 5.72668 28.5805 5.65848L21.8424 1.10473L15.1049 5.65848C15.1788 5.72668 15.2305 5.81559 15.2531 5.9136C15.2757 6.01161 15.2682 6.11415 15.2316 6.20785C15.195 6.30154 15.131 6.38202 15.048 6.43877C14.965 6.49553 14.8667 6.52592 14.7662 6.52598H13.668C13.561 6.52602 13.4567 6.49168 13.3706 6.42803C13.2845 6.36437 13.2211 6.27476 13.1898 6.17238C13.1584 6.06999 13.1607 5.96025 13.1964 5.8593C13.2321 5.75835 13.2993 5.67152 13.388 5.6116L21.5605 0.0866014C21.6435 0.0301743 21.7415 0 21.8418 0C21.9421 0 22.0401 0.0301743 22.123 0.0866014L30.298 5.6116C30.3868 5.67152 30.4539 5.75835 30.4896 5.8593C30.5253 5.96025 30.5277 6.06999 30.4963 6.17238C30.465 6.27476 30.4016 6.36437 30.3155 6.42803C30.2294 6.49168 30.1251 6.52602 30.018 6.52598H30.0174Z" fill="#444A54"/>
</svg>
