<svg width="24" height="24" viewBox="0 0 24 24" fill="none" xmlns="http://www.w3.org/2000/svg">
<g clip-path="url(#clip0_632_9251)">
<path d="M6.3 0.0937481C6.03281 0.224998 5.81719 0.449997 5.69063 0.726561C5.5875 0.946873 5.57812 1.01719 5.57812 1.81406V2.6625L4.56094 2.68125C3.43594 2.7 3.34688 2.72343 3.01875 3.00937C2.92031 3.09375 2.79375 3.26719 2.7375 3.39844C2.62969 3.62344 2.625 3.67969 2.625 4.76719V5.90156L2.74688 5.99531C2.90625 6.11719 3.04688 6.12187 3.20156 6L3.31875 5.90625L3.3375 4.86094C3.35625 3.38906 3.32812 3.42187 4.71094 3.42187H5.57812V3.85781C5.57812 4.23281 5.59688 4.32656 5.7 4.5375C6.15469 5.45156 7.43906 5.48906 7.95469 4.60312C8.06719 4.41094 8.08594 4.32656 8.1 3.90469L8.11875 3.42187H9.42188H10.725L10.7438 3.90469C10.7578 4.32656 10.7766 4.41094 10.8891 4.60312C11.3906 5.46094 12.6094 5.46094 13.1109 4.60312C13.2234 4.41094 13.2422 4.32656 13.2563 3.90469L13.275 3.42187H14.5781H15.8813L15.9 3.90469C15.9141 4.32656 15.9328 4.41094 16.0453 4.60312C16.5469 5.46094 17.7656 5.46094 18.2672 4.60312C18.3797 4.41094 18.3984 4.32656 18.4125 3.90469L18.4313 3.42187H19.2938C20.2453 3.42187 20.4141 3.45469 20.5641 3.68437C20.6438 3.81094 20.6484 4.13906 20.6625 11.2781L20.6719 18.7453L20.7938 18.8391C20.9531 18.9656 21.0938 18.9656 21.2531 18.8391L21.375 18.7453V11.1891V3.63281L21.2625 3.39844C21.2063 3.26719 21.0797 3.09375 20.9813 3.00937C20.6531 2.72343 20.5641 2.7 19.4438 2.68125L18.4219 2.6625V1.83281C18.4219 1.32656 18.3984 0.937498 18.3656 0.83906C18.2813 0.590622 18.0938 0.351561 17.8406 0.178123C17.6344 0.0374985 17.5734 0.0234356 17.2219 0.00468445C16.8984 -0.00469017 16.7953 0.00937271 16.6266 0.0890598C16.35 0.22031 16.1344 0.445311 16.0031 0.726561C15.9 0.946873 15.8906 1.01719 15.8906 1.81406V2.67187H14.5781H13.2656V1.81406C13.2656 1.01719 13.2563 0.946873 13.1531 0.726561C12.9281 0.239059 12.5438 -1.90735e-06 12 -1.90735e-06C11.4563 -1.90735e-06 11.0719 0.239059 10.8469 0.726561C10.7438 0.946873 10.7344 1.01719 10.7344 1.81406V2.67187H9.42188H8.10938V1.81406C8.10938 1.01719 8.1 0.946873 7.99688 0.726561C7.875 0.46406 7.58438 0.178123 7.33125 0.0703106C7.07812 -0.032814 6.53906 -0.0234394 6.3 0.0937481ZM7.2 0.909372L7.35938 1.06875V2.57343C7.35938 4.22812 7.35 4.28906 7.07812 4.42969C6.90469 4.51875 6.78281 4.51875 6.60938 4.42969C6.32813 4.28437 6.32813 4.29844 6.32813 2.61094V1.06875L6.4875 0.909372C6.61875 0.778122 6.68438 0.749998 6.84375 0.749998C7.00313 0.749998 7.06875 0.778122 7.2 0.909372ZM12.3563 0.909372L12.5156 1.06875V2.57343C12.5156 3.82969 12.5016 4.10625 12.4453 4.21875C12.3656 4.36875 12.1594 4.5 12 4.5C11.8406 4.5 11.6344 4.36875 11.5547 4.21875C11.4984 4.10625 11.4844 3.82969 11.4844 2.57343V1.06875L11.6438 0.909372C11.775 0.778122 11.8406 0.749998 12 0.749998C12.1594 0.749998 12.225 0.778122 12.3563 0.909372ZM17.5125 0.909372L17.6719 1.06875V2.59687C17.6719 4.275 17.6719 4.28437 17.3859 4.43437C17.2172 4.51875 17.0906 4.51875 16.9219 4.42969C16.65 4.28906 16.6406 4.22812 16.6406 2.57343V1.06875L16.8 0.909372C16.9313 0.778122 16.9969 0.749998 17.1563 0.749998C17.3156 0.749998 17.3813 0.778122 17.5125 0.909372Z" fill="#726758"/>
<path d="M2.71875 7.07813C2.625 7.17188 2.625 7.23281 2.625 15.1313V23.0906L2.74688 23.3344C2.87813 23.6016 3.07031 23.7844 3.35156 23.9109C3.52969 23.9953 3.91406 24 12 24C20.0859 24 20.4703 23.9953 20.6484 23.9109C20.9297 23.7844 21.1219 23.6016 21.2531 23.3344L21.375 23.0906V21.5531C21.375 20.0766 21.3703 20.0109 21.2812 19.9219C21.1688 19.8094 20.9203 19.7953 20.7844 19.8938C20.7 19.9594 20.6953 20.0438 20.6719 21.4313C20.6484 23.0203 20.6391 23.0625 20.3813 23.2125C20.2922 23.2594 18.6516 23.2734 12 23.2734C4.19531 23.2734 3.71719 23.2688 3.59531 23.1938C3.3375 23.0203 3.35156 23.5031 3.32812 15.0094C3.30469 7.26563 3.30469 7.11563 3.21563 7.05C3.07969 6.95156 2.83125 6.96563 2.71875 7.07813Z" fill="#726758"/>
<path d="M8.37687 7.13438C8.31124 7.19531 7.89406 7.68281 7.44874 8.22656C7.00812 8.76563 6.60499 9.24844 6.56281 9.3C6.48312 9.38438 6.47374 9.375 6.28156 9.05156C6.06124 8.68125 5.94874 8.57813 5.76124 8.57813C5.55968 8.57813 5.41437 8.72813 5.41906 8.93438C5.41906 9.07969 5.49874 9.24375 5.78468 9.70313C5.98156 10.0266 6.18312 10.3172 6.22531 10.3453C6.26749 10.3781 6.36593 10.4062 6.44562 10.4062C6.52531 10.4062 6.62374 10.3781 6.66593 10.3453C6.74562 10.2844 8.79406 7.82813 8.92062 7.64063C9.18312 7.26563 8.70968 6.82969 8.37687 7.13438Z" fill="#726758"/>
<path d="M9.90469 8.44218C9.67969 8.55468 9.44062 8.80312 9.34687 9.02812C9.30937 9.11718 9.28125 9.30468 9.28125 9.45468C9.28594 9.90468 9.49219 10.2469 9.89531 10.4625L10.1016 10.5703L13.9875 10.5844C18.2719 10.5984 18.1734 10.6031 18.5297 10.3078C19.1344 9.80625 19.0219 8.81718 18.3141 8.46093L18.075 8.34375H14.0906C10.1344 8.34375 10.1016 8.34375 9.90469 8.44218ZM18.0328 9.1875C18.1734 9.31406 18.2016 9.44531 18.1312 9.59531C18.0094 9.84843 18.1266 9.84375 14.0766 9.84375H10.3219L10.1766 9.72187C9.99375 9.56718 9.98437 9.375 10.1484 9.21093L10.2609 9.09375H14.1C17.85 9.09375 17.9391 9.09375 18.0328 9.1875Z" fill="#726758"/>
<path d="M8.37687 11.775C8.31124 11.8359 7.89406 12.3234 7.44874 12.8672C7.00812 13.4063 6.60499 13.8891 6.56281 13.9406C6.48312 14.025 6.47374 14.0156 6.28156 13.6922C6.06124 13.3219 5.94874 13.2188 5.76124 13.2188C5.55968 13.2188 5.41437 13.3688 5.41906 13.575C5.41906 13.7203 5.49874 13.8844 5.78468 14.3438C5.98156 14.6672 6.18312 14.9578 6.22531 14.9859C6.26749 15.0188 6.36593 15.0469 6.44562 15.0469C6.52531 15.0469 6.62374 15.0188 6.66593 14.9859C6.74562 14.925 8.79406 12.4688 8.92062 12.2813C9.18312 11.9063 8.70968 11.4703 8.37687 11.775Z" fill="#726758"/>
<path d="M9.90957 13.0969C9.11738 13.4672 9.06113 14.6016 9.81582 15.0703L10.0455 15.2109H14.0814C17.9299 15.2109 18.1268 15.2062 18.2814 15.1219C18.5111 15 18.6939 14.8172 18.8111 14.6016C18.9471 14.3391 18.9471 13.875 18.8111 13.6125C18.6752 13.3594 18.3799 13.0969 18.1549 13.0359C18.0377 13.0031 16.6783 12.9844 14.0627 12.9844H10.1486L9.90957 13.0969ZM18.0564 13.875C18.2205 14.0437 18.2111 14.2078 18.0189 14.3766L17.9018 14.4844H14.1283C10.908 14.4844 10.3361 14.475 10.2236 14.4141C9.99863 14.3016 9.96113 14.0344 10.1486 13.8516L10.2611 13.7344H14.0861H17.9158L18.0564 13.875Z" fill="#726758"/>
<path d="M8.17031 16.6781C8.02031 16.8516 7.58438 17.3812 7.19531 17.8453L6.49219 18.6984L6.30938 18.4078C6.04688 17.9859 5.9625 17.9062 5.77969 17.9062C5.5875 17.9062 5.39062 18.0797 5.39062 18.2484C5.39062 18.3797 5.95781 19.35 6.16875 19.575C6.36094 19.7812 6.51094 19.7812 6.72188 19.5797C6.81094 19.5 7.35938 18.8531 7.94063 18.15C8.87344 17.025 9 16.8516 9 16.7109C9 16.4859 8.86406 16.3594 8.625 16.3594C8.45625 16.3594 8.41875 16.3828 8.17031 16.6781Z" fill="#726758"/>
<path d="M10.0172 17.6906C9.44996 17.8969 9.14996 18.5203 9.33278 19.1297C9.41246 19.3875 9.63746 19.6359 9.90934 19.7625L10.1484 19.875H14.0625C16.6781 19.875 18.0375 19.8563 18.1547 19.8234C18.3797 19.7625 18.675 19.5 18.8109 19.2469C18.9468 18.9844 18.9468 18.5203 18.8109 18.2578C18.6937 18.0422 18.5109 17.8594 18.2812 17.7375C18.1265 17.6531 17.9203 17.6484 14.1562 17.6391C10.9265 17.6297 10.1625 17.6391 10.0172 17.6906ZM18.0187 18.4781C18.2109 18.6516 18.2203 18.8156 18.0562 18.9844L17.9156 19.125H14.0859H10.2609L10.1484 19.0078C9.9609 18.825 10.0031 18.5578 10.2422 18.4313C10.3078 18.3938 11.4703 18.3797 14.1187 18.375H17.9015L18.0187 18.4781Z" fill="#726758"/>
</g>
<defs>
<clipPath id="clip0_632_9251">
<rect width="24" height="24" fill="white"/>
</clipPath>
</defs>
</svg>
