<svg width="33" height="32" viewBox="0 0 33 32" fill="none" xmlns="http://www.w3.org/2000/svg">
<g clip-path="url(#clip0_394_3807)">
<path d="M23.5 28.5H20.5C20.3674 28.5 20.2402 28.4473 20.1464 28.3536C20.0527 28.2598 20 28.1326 20 28V25H18V28C18 28.1326 17.9473 28.2598 17.8536 28.3536C17.7598 28.4473 17.6326 28.5 17.5 28.5H14.5C14.3674 28.5 14.2402 28.4473 14.1464 28.3536C14.0527 28.2598 14 28.1326 14 28V21C14 20.9177 14.0203 20.8367 14.0591 20.7641C14.0979 20.6915 14.154 20.6297 14.2225 20.584L18.7225 17.584C18.8047 17.5292 18.9012 17.4999 19 17.4999C19.0988 17.4999 19.1953 17.5292 19.2775 17.584L23.7775 20.584C23.846 20.6297 23.9021 20.6915 23.9409 20.7641C23.9797 20.8367 24 20.9177 24 21V28C24 28.1326 23.9473 28.2598 23.8536 28.3536C23.7598 28.4473 23.6326 28.5 23.5 28.5ZM21 27.5H23V21.2675L19 18.6L15 21.2665V27.5H17V24.5C17 24.3674 17.0527 24.2402 17.1464 24.1464C17.2402 24.0527 17.3674 24 17.5 24H20.5C20.6326 24 20.7598 24.0527 20.8536 24.1464C20.9473 24.2402 21 24.3674 21 24.5V27.5Z" fill="#FC8284"/>
<path d="M30.5 30.5H4C3.60444 30.5 3.21776 30.3827 2.88886 30.1629C2.55996 29.9432 2.30362 29.6308 2.15224 29.2654C2.00087 28.8999 1.96126 28.4978 2.03843 28.1098C2.1156 27.7219 2.30608 27.3655 2.58579 27.0858C2.86549 26.8061 3.22186 26.6156 3.60982 26.5384C3.99778 26.4613 4.39992 26.5009 4.76537 26.6522C5.13082 26.8036 5.44318 27.06 5.66294 27.3889C5.8827 27.7178 6 28.1044 6 28.5C6 28.6326 5.94732 28.7598 5.85355 28.8536C5.75979 28.9473 5.63261 29 5.5 29C5.36739 29 5.24022 28.9473 5.14645 28.8536C5.05268 28.7598 5 28.6326 5 28.5C5 28.3022 4.94135 28.1089 4.83147 27.9444C4.72159 27.78 4.56541 27.6518 4.38268 27.5761C4.19996 27.5004 3.99889 27.4806 3.80491 27.5192C3.61093 27.5578 3.43275 27.653 3.29289 27.7929C3.15304 27.9327 3.0578 28.1109 3.01922 28.3049C2.98063 28.4989 3.00043 28.7 3.07612 28.8827C3.15181 29.0654 3.27998 29.2216 3.44443 29.3315C3.60888 29.4414 3.80222 29.5 4 29.5H30V15H7C6.86739 15 6.74022 14.9473 6.64645 14.8536C6.55268 14.7598 6.5 14.6326 6.5 14.5C6.5 14.3674 6.55268 14.2402 6.64645 14.1464C6.74022 14.0527 6.86739 14 7 14H30.5C30.6326 14 30.7598 14.0527 30.8536 14.1464C30.9473 14.2402 31 14.3674 31 14.5V30C31 30.1326 30.9473 30.2598 30.8536 30.3536C30.7598 30.4473 30.6326 30.5 30.5 30.5Z" fill="#FC8284"/>
<path d="M32 12.5H27V0.5C27 0.367392 26.9473 0.240215 26.8536 0.146447C26.7598 0.0526784 26.6326 0 26.5 0L20.5 0C20.3674 0 20.2402 0.0526784 20.1464 0.146447C20.0527 0.240215 20 0.367392 20 0.5V12.5H17V4.5H16V12.5H13V4.5H12V12.5H7.46C7.32748 11.6298 6.87197 10.8416 6.18423 10.2922C5.4965 9.74291 4.62703 9.47288 3.74911 9.53595C2.87118 9.59902 2.04924 9.99056 1.44709 10.6325C0.844937 11.2745 0.506779 12.1198 0.5 13L0.5 28.5C0.501059 29.4279 0.870148 30.3176 1.5263 30.9737C2.18244 31.6299 3.07207 31.9989 4 32H32C32.1326 32 32.2598 31.9473 32.3536 31.8536C32.4473 31.7598 32.5 31.6326 32.5 31.5V13C32.5 12.8674 32.4473 12.7402 32.3536 12.6464C32.2598 12.5527 32.1326 12.5 32 12.5ZM21 1H26V2.5H24.5C24.3674 2.5 24.2402 2.55268 24.1464 2.64645C24.0527 2.74021 24 2.86739 24 3C24 3.13261 24.0527 3.25979 24.1464 3.35355C24.2402 3.44732 24.3674 3.5 24.5 3.5H26V4.5H23C22.8674 4.5 22.7402 4.55268 22.6464 4.64645C22.5527 4.74021 22.5 4.86739 22.5 5C22.5 5.13261 22.5527 5.25979 22.6464 5.35355C22.7402 5.44732 22.8674 5.5 23 5.5H26V6.5H24.5C24.3674 6.5 24.2402 6.55268 24.1464 6.64645C24.0527 6.74021 24 6.86739 24 7C24 7.13261 24.0527 7.25979 24.1464 7.35355C24.2402 7.44732 24.3674 7.5 24.5 7.5H26V8.5H23C22.8674 8.5 22.7402 8.55268 22.6464 8.64645C22.5527 8.74021 22.5 8.86739 22.5 9C22.5 9.13261 22.5527 9.25979 22.6464 9.35355C22.7402 9.44732 22.8674 9.5 23 9.5H26V10.5H24.5C24.3674 10.5 24.2402 10.5527 24.1464 10.6464C24.0527 10.7402 24 10.8674 24 11C24 11.1326 24.0527 11.2598 24.1464 11.3536C24.2402 11.4473 24.3674 11.5 24.5 11.5H26V12.5H21V1ZM1.5 13C1.5 12.337 1.76339 11.7011 2.23223 11.2322C2.70107 10.7634 3.33696 10.5 4 10.5C4.66304 10.5 5.29893 10.7634 5.76777 11.2322C6.23661 11.7011 6.5 12.337 6.5 13V26.0555C6.17493 25.7215 5.78622 25.456 5.35684 25.2747C4.92745 25.0934 4.46609 25 4 25C3.53391 25 3.07255 25.0934 2.64316 25.2747C2.21378 25.456 1.82507 25.7215 1.5 26.0555V13ZM31.5 31H4C3.50555 31 3.0222 30.8534 2.61107 30.5787C2.19995 30.304 1.87952 29.9135 1.6903 29.4567C1.50108 28.9999 1.45157 28.4972 1.54804 28.0123C1.6445 27.5273 1.8826 27.0819 2.23223 26.7322C2.58186 26.3826 3.02732 26.1445 3.51227 26.048C3.99723 25.9516 4.49989 26.0011 4.95671 26.1903C5.41352 26.3795 5.80397 26.7 6.07867 27.1111C6.35338 27.5222 6.5 28.0055 6.5 28.5C6.5 28.6326 6.55268 28.7598 6.64645 28.8536C6.74021 28.9473 6.86739 29 7 29C7.13261 29 7.25979 28.9473 7.35355 28.8536C7.44732 28.7598 7.5 28.6326 7.5 28.5V13.5H31.5V31Z" fill="#FC8284"/>
<path d="M16.95 4.2765L14.95 0.2765C14.9038 0.199011 14.8383 0.134847 14.7598 0.0902889C14.6814 0.0457304 14.5927 0.0223045 14.5025 0.0223045C14.4123 0.0223045 14.3236 0.0457304 14.2452 0.0902889C14.1667 0.134847 14.1012 0.199011 14.055 0.2765L12.055 4.2765C12.0081 4.37038 11.992 4.47661 12.0089 4.58017C12.0258 4.68372 12.0748 4.77935 12.149 4.8535C12.7736 5.47692 13.62 5.82705 14.5025 5.82705C15.385 5.82705 16.2314 5.47692 16.856 4.8535C16.9302 4.77935 16.9792 4.68372 16.9961 4.58017C17.013 4.47661 16.9969 4.37038 16.95 4.2765ZM14.5 1.618L15.096 2.8105C14.9082 2.89311 14.7052 2.93576 14.5 2.93576C14.2948 2.93576 14.0918 2.89311 13.904 2.8105L14.5 1.618ZM13.121 4.376L13.4575 3.703C13.7824 3.86062 14.1389 3.94252 14.5 3.94252C14.8611 3.94252 15.2176 3.86062 15.5425 3.703L15.879 4.376C15.4791 4.66936 14.996 4.82754 14.5 4.82754C14.004 4.82754 13.5209 4.66936 13.121 4.376Z" fill="#FC8284"/>
</g>
<defs>
<clipPath id="clip0_394_3807">
<rect width="32" height="32" fill="white" transform="translate(0.5)"/>
</clipPath>
</defs>
</svg>
