<svg width="24" height="24" viewBox="0 0 24 24" fill="none" xmlns="http://www.w3.org/2000/svg">
<path fill-rule="evenodd" clip-rule="evenodd" d="M11.4995 9.00339C10.9475 9.00339 10.4995 8.55439 10.4995 8.00339C10.4995 7.45239 10.9475 7.00339 11.4995 7.00339C12.0515 7.00339 12.4995 7.45239 12.4995 8.00339C12.4995 8.55439 12.0515 9.00339 11.4995 9.00339ZM12.4995 16.0034H10.4995C10.2235 16.0034 9.99951 15.7794 9.99951 15.5034C9.99951 15.2274 10.2235 15.0034 10.4995 15.0034H10.9995V11.0034H10.4995C10.2235 11.0034 9.99951 10.7794 9.99951 10.5034C9.99951 10.2274 10.2235 10.0034 10.4995 10.0034H11.4995C11.7755 10.0034 11.9995 10.2274 11.9995 10.5034V15.0034H12.4995C12.7755 15.0034 12.9995 15.2274 12.9995 15.5034C12.9995 15.7794 12.7755 16.0034 12.4995 16.0034ZM11.4995 3.00339C6.81251 3.00339 2.99951 6.81639 2.99951 11.5034C2.99951 16.1904 6.81251 20.0034 11.4995 20.0034C16.1865 20.0034 19.9995 16.1904 19.9995 11.5034C19.9995 6.81639 16.1865 3.00339 11.4995 3.00339ZM11.4995 21.0034C6.26151 21.0034 1.99951 16.7414 1.99951 11.5034C1.99951 6.26539 6.26151 2.00339 11.4995 2.00339C16.7375 2.00339 20.9995 6.26539 20.9995 11.5034C20.9995 16.7414 16.7375 21.0034 11.4995 21.0034Z" fill="#444A54"/>
</svg>
