<svg width="24" height="24" viewBox="0 0 24 24" fill="none" xmlns="http://www.w3.org/2000/svg">
<g clip-path="url(#clip0_275_1814)">
<path d="M19.4537 10.4058C19.0654 10.4058 18.7506 10.7207 18.7506 11.109V21.4218C18.7506 22.068 18.2249 22.5937 17.5787 22.5937H2.57821C1.93201 22.5937 1.40629 22.068 1.40629 21.4218V6.42134C1.40629 5.77515 1.93201 5.24943 2.57821 5.24943H12.891C13.2794 5.24943 13.5942 4.93461 13.5942 4.54629C13.5942 4.15796 13.2794 3.84314 12.891 3.84314H2.57821C1.15658 3.84314 0 4.99972 0 6.42134V21.4218C0 22.8434 1.15658 24 2.57821 24H17.5787C19.0003 24 20.1569 22.8434 20.1569 21.4218V11.109C20.1569 10.7207 19.8421 10.4058 19.4537 10.4058Z" fill="#444A54"/>
<path d="M23.5202 1.80569L22.1943 0.479788C21.5546 -0.159889 20.5138 -0.159889 19.874 0.479788L9.26716 11.0867C9.169 11.1849 9.1021 11.3099 9.07482 11.446L8.41185 14.7607C8.36577 14.9912 8.43791 15.2296 8.60418 15.3958C8.73736 15.529 8.91675 15.6018 9.10135 15.6018C9.14725 15.6018 9.19337 15.5973 9.23922 15.5881L12.5539 14.9251C12.69 14.8979 12.815 14.831 12.9132 14.7328L23.5202 4.12593C23.5202 4.12593 23.5202 4.12593 23.5202 4.12589C24.1599 3.48626 24.1599 2.44541 23.5202 1.80569ZM12.0694 13.5879L9.99773 14.0023L10.4121 11.9306L19.0454 3.29725L20.7027 4.95462L12.0694 13.5879ZM22.5258 3.13154L21.6971 3.96022L20.0397 2.30286L20.8684 1.47422C20.9598 1.38282 21.1085 1.38277 21.1999 1.47418L22.5257 2.80008C22.6172 2.89144 22.6172 3.04018 22.5258 3.13154Z" fill="#444A54"/>
</g>
<defs>
<clipPath id="clip0_275_1814">
<rect width="24" height="24" fill="white"/>
</clipPath>
</defs>
</svg>
