<svg width="24" height="24" viewBox="0 0 24 24" fill="none" xmlns="http://www.w3.org/2000/svg">
<g clip-path="url(#clip0_421_20459)">
<path d="M10.875 0.356249C10.7812 0.5625 10.6875 1.93125 10.6875 3.45C10.6875 4.95 10.65 6.1875 10.5938 6.1875C10.5375 6.1875 10.0688 5.98125 9.5625 5.71875C8.68125 5.26875 8.625 5.2125 8.625 4.5C8.625 3.825 8.56875 3.75 8.15625 3.75C7.74375 3.75 7.6875 3.825 7.6875 4.5C7.6875 5.04375 7.59375 5.2875 7.33125 5.4375C7.125 5.53125 6.91875 5.625 6.8625 5.625C6.80625 5.625 6.3 4.74375 5.71875 3.65625C4.40625 1.2 3.9 0.75 2.49375 0.75C1.5375 0.75 1.40625 0.80625 0.73125 1.48125C0.075 2.1375 0 2.30625 0 3.16875C0 4.5375 0.9375 6.2625 1.5 5.90625C1.8 5.71875 1.725 5.3625 1.2 4.36875C0.65625 3.3 0.7125 2.71875 1.425 2.04375C2.00625 1.5 3.05625 1.4625 3.5625 1.96875C3.75 2.175 4.3875 3.1875 4.95 4.21875L5.98125 6.09375L5.34375 6.46875L4.6875 6.84375V8.38125C4.6875 9.50625 4.6125 9.9375 4.4625 9.9375C4.33125 9.9375 3.7875 9.15 3.28125 8.19375C2.56875 6.9 2.23125 6.45 1.9125 6.4125C1.29375 6.31875 1.3875 6.7125 2.325 8.4375L3.16875 9.9375H1.9875C1.33125 9.9375 0.73125 10.0312 0.6 10.1625C0.3 10.4625 0.3 12.225 0.6 12.525C0.73125 12.6562 1.05 12.75 1.33125 12.75C1.81875 12.75 1.85625 12.8062 2.1375 14.475C3.54375 22.3687 3.4875 22.1812 3.9375 22.5375C4.3125 22.8375 4.8 22.875 9.3 22.875H14.25V23.4375V24H17.775H21.3L22.4625 22.8187L23.6438 21.6375L23.5875 20.1375C23.5312 18.8062 23.4938 18.6562 23.1562 18.6562C22.8188 18.6562 22.7812 18.8062 22.725 19.8187L22.6688 20.9812L21.6 21.0375L20.5312 21.0938L20.475 22.1625L20.4188 23.25H17.7188H15V19.0312V14.8125H18.8438H22.6875V16.3875C22.6875 17.5312 22.7625 17.9812 22.9313 18.0562C23.5312 18.2812 23.6438 17.9062 23.5875 15.9187L23.5312 13.9688L23.025 13.9125C22.575 13.8562 22.5 13.7625 22.5 13.2937C22.5 12.825 22.575 12.75 23.025 12.75C23.775 12.75 24 12.4312 24 11.3437C24 10.2375 23.775 9.9375 22.95 9.9375H22.35L22.275 7.7625L22.2188 5.5875L21.525 4.96875C20.9813 4.51875 20.8125 4.21875 20.8125 3.7875C20.8125 3 20.3063 2.75625 18.9 2.85C17.6813 2.94375 17.4375 3.13125 17.4375 4.03125C17.4375 4.7625 16.65 5.175 15.8625 4.875C15.5813 4.78125 14.9813 4.6875 14.5125 4.6875H13.6875V2.56875C13.6875 1.1625 13.6125 0.375 13.4625 0.224998C13.3313 0.09375 12.75 0 12.15 0C11.2875 0 11.0438 0.0749989 10.875 0.356249ZM12.75 5.34375V9.9375H12.1875H11.625V5.34375V0.75H12.1875H12.75V5.34375ZM19.875 4.125C19.875 4.44375 19.7438 4.5 19.125 4.5C18.5063 4.5 18.375 4.44375 18.375 4.125C18.375 3.80625 18.5063 3.75 19.125 3.75C19.7438 3.75 19.875 3.80625 19.875 4.125ZM15.5625 5.85C16.125 6.15 16.5188 6.50625 16.7438 6.95625C17.0063 7.48125 17.2125 7.66875 17.7 7.7625C18.0563 7.8375 18.5438 8.1 18.8063 8.34375C19.2563 8.79375 19.5563 9.6375 19.35 9.84375C19.2938 9.9 18 9.9375 16.4625 9.9375H13.6875V7.8C13.6875 5.625 13.725 5.49375 14.4375 5.45625C14.6063 5.4375 15.1125 5.625 15.5625 5.85ZM21.075 5.85C21.5625 6.525 21.45 6.75 20.6625 6.75C20.2688 6.75 19.7812 6.8625 19.575 7.0125C19.0312 7.40625 17.85 6.99375 17.475 6.28125C17.1 5.56875 17.3625 5.4375 19.2563 5.4375C20.625 5.4375 20.8125 5.475 21.075 5.85ZM10.6875 8.6625V9.9375H8.15625H5.625V8.6625V7.3875L6.88125 6.7125L8.15625 6.01875L9.4125 6.7125L10.6875 7.3875V8.6625ZM21.15 7.9125C21.2812 8.04375 21.375 8.55 21.375 9.0375C21.375 9.91875 21.3563 9.9375 20.8125 9.9375C20.3063 9.9375 20.25 9.88125 20.25 9.31875C20.25 9 20.175 8.5875 20.0625 8.4375C19.7063 7.875 20.6438 7.40625 21.15 7.9125ZM23.25 11.3437V11.8125H12.2813H1.3125V11.3437V10.875H12.2813H23.25V11.3437ZM21.5625 13.3125V13.875L17.9625 13.9125L14.3438 13.9688L14.2875 17.9437L14.25 21.9375H9.4875C5.55 21.9375 4.6875 21.8812 4.5 21.6562C4.33125 21.45 2.8125 13.5938 2.8125 12.8812C2.8125 12.8062 7.03125 12.75 12.1875 12.75H21.5625V13.3125ZM21.9375 22.0125C21.9375 22.05 21.8063 22.1812 21.6562 22.3125C21.4313 22.5 21.375 22.5 21.375 22.2375C21.375 22.0687 21.5063 21.9375 21.6562 21.9375C21.8063 21.9375 21.9375 21.975 21.9375 22.0125Z" fill="#726758"/>
<path d="M6.69331 7.575C6.50581 8.025 6.99331 8.25 8.17456 8.25C9.33706 8.25 9.93706 7.95 9.65581 7.5C9.46831 7.2 6.80581 7.25625 6.69331 7.575Z" fill="#726758"/>
<path d="M6.8625 14.55C6.7125 14.925 6.7125 19.575 6.8625 19.95C6.91875 20.1187 7.14375 20.25 7.33125 20.25C7.66875 20.25 7.6875 20.0625 7.6875 17.25C7.6875 14.4375 7.66875 14.25 7.33125 14.25C7.14375 14.25 6.91875 14.3812 6.8625 14.55Z" fill="#726758"/>
<path d="M9.375 17.25C9.375 20.1187 9.39375 20.25 9.75 20.25C10.1063 20.25 10.125 20.1187 10.125 17.25C10.125 14.3812 10.1063 14.25 9.75 14.25C9.39375 14.25 9.375 14.3812 9.375 17.25Z" fill="#726758"/>
<path d="M11.9438 14.3812C11.8688 14.4375 11.8125 15.8062 11.8125 17.3812C11.8125 20.2687 11.8125 20.2687 12.2438 20.2125C12.6375 20.1562 12.6563 20.0812 12.7125 17.625C12.7313 16.2375 12.7125 14.9062 12.6563 14.6625C12.5625 14.2687 12.1875 14.1187 11.9438 14.3812Z" fill="#726758"/>
<path d="M2.62475 3.7875C2.156 4.575 2.13725 5.0625 2.606 5.0625C3.03725 5.0625 3.8435 3.8625 3.67475 3.46875C3.506 3 3.0185 3.15 2.62475 3.7875Z" fill="#726758"/>
<path d="M3.67475 5.7375C3.1685 6.46875 3.206 6.9375 3.7685 6.9375C4.1435 6.9375 4.68725 6.05625 4.68725 5.4375C4.68725 4.85625 4.181 4.9875 3.67475 5.7375Z" fill="#726758"/>
<path d="M21.3192 16.0875C21.113 16.3125 20.8317 16.4062 20.5505 16.3687C20.3067 16.3125 20.0442 16.3687 19.9692 16.5C19.8192 16.7437 20.5505 17.625 20.9067 17.625C21.263 17.625 22.163 16.5562 22.088 16.2C22.013 15.7312 21.6755 15.6937 21.3192 16.0875Z" fill="#726758"/>
<path d="M15.9375 16.6875C15.9375 17.0438 16.05 17.0625 17.7375 17.0625C19.35 17.0625 19.5187 17.025 19.4625 16.725C19.4062 16.4625 19.1437 16.4063 17.6625 16.35C16.0312 16.2938 15.9375 16.3125 15.9375 16.6875Z" fill="#726758"/>
<path d="M21.1871 17.7187C21.0559 17.8875 20.8121 17.9625 20.6621 17.9062C20.2309 17.7375 19.8559 18.1687 20.0621 18.5812C20.4371 19.275 20.9246 19.35 21.5434 18.825C22.2184 18.2625 22.3496 17.4375 21.7684 17.4375C21.5809 17.4375 21.3184 17.5687 21.1871 17.7187Z" fill="#726758"/>
<path d="M16.0688 17.9437C15.9938 18 15.9375 18.225 15.9375 18.4125C15.9375 18.7125 16.1063 18.75 17.625 18.75C19.0125 18.75 19.35 18.6937 19.4438 18.45C19.5 18.2812 19.4438 18.075 19.2938 17.9812C18.9938 17.7937 16.2563 17.7562 16.0688 17.9437Z" fill="#726758"/>
<path d="M15.9375 19.9688V20.4563L17.6813 20.4C19.2563 20.3438 19.4063 20.3063 19.4063 19.9688C19.4063 19.6313 19.2563 19.5938 17.6813 19.5375L15.9375 19.4813V19.9688Z" fill="#726758"/>
<path d="M15.9375 21.5625C15.9375 21.9188 16.05 21.9375 17.7375 21.9375C19.35 21.9375 19.5187 21.9 19.4625 21.6C19.4062 21.3375 19.1437 21.2813 17.6625 21.225C16.0312 21.1688 15.9375 21.1875 15.9375 21.5625Z" fill="#726758"/>
</g>
<defs>
<clipPath id="clip0_421_20459">
<rect width="24" height="24" fill="white"/>
</clipPath>
</defs>
</svg>
