<svg width="33" height="32" viewBox="0 0 33 32" fill="none" xmlns="http://www.w3.org/2000/svg">
<path d="M18.4977 26.5745H24.6541C24.7536 26.5745 24.849 26.5349 24.9193 26.4646C24.9896 26.3943 25.0291 26.2989 25.0291 26.1995V20.043C25.0291 19.9436 24.9896 19.8482 24.9193 19.7778C24.849 19.7075 24.7536 19.668 24.6541 19.668H18.4977C18.3983 19.668 18.3029 19.7075 18.2326 19.7778C18.1623 19.8482 18.1227 19.9436 18.1227 20.043V26.1995C18.1227 26.2989 18.1623 26.3943 18.2326 26.4646C18.3029 26.5349 18.3983 26.5745 18.4977 26.5745ZM21.9509 20.418H24.2791V22.7463H21.9509L21.9509 20.418ZM21.9509 23.4962H24.2791V25.8245H21.9509L21.9509 23.4962ZM18.8727 20.418H21.2009V22.7463H18.8727V20.418ZM18.8727 23.4962H21.2009V25.8245H18.8727V23.4962Z" fill="#444A54"/>
<path d="M21.6374 5.4691C22.5114 5.5183 22.9797 5.69213 23.0291 5.98589C23.1541 6.72827 23.2565 7.55188 23.257 7.56017C23.3148 8.00314 23.9607 7.97189 24.0014 7.56017C24.0018 7.55188 24.1042 6.72825 24.2291 5.98589C24.2792 5.68828 25.1067 5.4794 25.6588 5.44317C26.1482 5.38855 26.0961 4.68023 25.6207 4.69225C24.7468 4.643 24.2786 4.4691 24.2291 4.17553C24.1041 3.43315 24.0024 2.60937 24.0014 2.60113C23.919 2.21148 23.3982 2.11773 23.257 2.60113C23.2559 2.60937 23.1542 3.43255 23.0291 4.17553C22.9791 4.47303 22.2106 4.69064 21.5992 4.71819C21.5003 4.72425 21.4079 4.76907 21.3419 4.84291C21.2759 4.91675 21.2417 5.01365 21.2467 5.11256C21.2518 5.21146 21.2956 5.30438 21.3688 5.37114C21.4419 5.4379 21.5384 5.47311 21.6374 5.4691ZM23.6219 4.6693C23.7323 4.84955 23.8881 4.99762 24.0737 5.09869C23.9001 5.19513 23.7506 5.32961 23.6364 5.49207C23.526 5.31181 23.3702 5.16372 23.1846 5.06263C23.3582 4.96625 23.5077 4.83177 23.6219 4.6693Z" fill="#444A54"/>
<path d="M25.4504 10.5344C25.4504 10.5344 26.1117 10.7349 26.3143 10.979C26.4867 11.1646 26.6922 12.2377 26.697 12.3067C26.7159 12.3896 26.7624 12.4637 26.8289 12.5167C26.8954 12.5697 26.9779 12.5986 27.0629 12.5986C27.148 12.5986 27.2305 12.5697 27.297 12.5167C27.3635 12.4637 27.41 12.3896 27.4289 12.3067C27.437 12.2384 27.6507 11.1647 27.8113 10.9791C27.9632 10.7662 28.6753 10.5344 28.6753 10.5344C29.0257 10.4225 28.9789 9.82873 28.5632 9.80932C28.3107 9.81272 28.0638 9.73405 27.8598 9.58513C27.6423 9.4547 27.4742 8.82799 27.4363 8.42613C27.4277 8.33304 27.3847 8.24651 27.3156 8.18352C27.2465 8.12052 27.1564 8.0856 27.0629 8.0856C26.9694 8.0856 26.8793 8.12052 26.8102 8.18352C26.7411 8.24651 26.6981 8.33304 26.6895 8.42613C26.6526 8.82768 26.4849 9.45385 26.266 9.58525C26.1898 9.64908 25.9789 9.77408 25.5625 9.80937C25.4774 9.81518 25.3967 9.84979 25.3338 9.90752C25.271 9.96525 25.2296 10.0427 25.2165 10.127C25.2035 10.2114 25.2195 10.2977 25.2621 10.3717C25.3046 10.4457 25.371 10.5031 25.4504 10.5344ZM27.0629 9.78686C27.1694 9.97685 27.3217 10.1372 27.506 10.2533C27.3132 10.3868 27.1601 10.5699 27.0629 10.7832C26.9687 10.5679 26.815 10.3841 26.6198 10.2533C26.8104 10.145 26.9646 9.98271 27.0629 9.78686Z" fill="#444A54"/>
<path d="M3.45104 7.005C3.83153 7.02808 4.98932 7.09839 5.08411 7.7052C5.22681 8.6181 5.34376 9.63044 5.34411 9.64063C5.35506 9.73174 5.39901 9.81568 5.46766 9.87657C5.53631 9.93746 5.6249 9.97109 5.71666 9.97109C5.80843 9.97109 5.89701 9.93746 5.96566 9.87657C6.03431 9.81568 6.07827 9.73174 6.08922 9.64063C6.08986 9.63045 6.20647 8.61859 6.34922 7.7052C6.42297 7.23315 7.53076 6.98634 8.02561 6.97315C8.11976 6.96573 8.20766 6.92309 8.27178 6.85374C8.33589 6.78439 8.37151 6.69342 8.37154 6.59897C8.37156 6.50452 8.33598 6.41354 8.2719 6.34415C8.20782 6.27477 8.11995 6.23209 8.02579 6.22462C7.48152 6.19065 6.43464 6.10212 6.34922 5.52192C6.19507 4.49794 6.08946 3.5965 6.08922 3.5863C6.07815 3.49528 6.03415 3.41146 5.96551 3.35067C5.89687 3.28987 5.80835 3.2563 5.71666 3.2563C5.62497 3.2563 5.53645 3.28987 5.46782 3.35067C5.39918 3.41146 5.35517 3.49528 5.34411 3.5863C5.34329 3.59647 5.22679 4.60889 5.08411 5.52192C5.01036 5.99384 3.99191 6.20107 3.40741 6.25379C3.3096 6.26199 3.21886 6.30807 3.15454 6.38221C3.09022 6.45635 3.05741 6.55268 3.0631 6.65067C3.0688 6.74865 3.11254 6.84054 3.18501 6.90673C3.25748 6.97292 3.35294 7.00819 3.45104 7.005ZM5.71148 5.98108C5.85589 6.26905 6.09434 6.49905 6.38732 6.63299C6.10879 6.76561 5.87682 6.97926 5.72179 7.24597C5.57741 6.95797 5.33899 6.72792 5.04602 6.59393C5.32453 6.46137 5.55649 6.24776 5.71148 5.98108Z" fill="#444A54"/>
<path d="M5.67567 23.512C5.42258 23.5124 5.17569 23.4337 4.96955 23.2869C4.75117 23.1559 4.5611 22.5281 4.54427 22.1234C4.53458 22.0311 4.49107 21.9457 4.42211 21.8836C4.35316 21.8215 4.26365 21.7871 4.17085 21.7871C4.07806 21.7871 3.98855 21.8215 3.9196 21.8836C3.85064 21.9457 3.80712 22.0311 3.79744 22.1234C3.78052 22.5278 3.59199 23.155 3.37203 23.2869C3.35262 23.2986 3.14818 23.4719 2.66592 23.512C2.419 23.5033 2.05443 23.9408 2.55379 24.2371C2.55379 24.2371 3.24193 24.4511 3.42085 24.6834C3.55348 24.8294 3.69069 25.4789 3.7566 25.7911C3.77747 25.8648 3.79362 25.9398 3.80494 26.0156C3.82298 26.0993 3.86915 26.1743 3.93574 26.228C4.00234 26.2818 4.08534 26.3111 4.17093 26.3111C4.25651 26.311 4.33951 26.2817 4.40608 26.2279C4.47266 26.1742 4.5188 26.0992 4.53682 26.0155C4.5459 25.9471 4.56782 25.8726 4.58485 25.7919C4.65083 25.4795 4.78804 24.8294 4.92073 24.6834C5.12212 24.4459 5.78779 24.2371 5.78779 24.2371C6.15858 24.1177 6.07585 23.5228 5.67567 23.512ZM4.17078 24.4905C4.07392 24.2747 3.91943 24.0898 3.7243 23.9561C3.91569 23.8462 4.07085 23.6828 4.17078 23.486C4.27201 23.6819 4.42689 23.8449 4.61732 23.9561C4.42331 24.091 4.26909 24.2756 4.17078 24.4905Z" fill="#444A54"/>
<path d="M29.7554 16.0546L24.2317 11.3733C24.3175 11.3496 24.3921 11.2964 24.4425 11.2231C24.4928 11.1497 24.5157 11.0609 24.507 10.9724C24.4983 10.8839 24.4586 10.8012 24.3949 10.7391C24.3312 10.677 24.2476 10.6394 24.1588 10.6329C23.4513 10.602 23.004 10.3882 22.7003 10.0344C22.1365 9.37764 22.0952 8.33924 21.9967 7.80296C21.9887 7.70939 21.9459 7.62223 21.8767 7.55872C21.8075 7.49521 21.717 7.45996 21.6231 7.45995H21.6229C21.529 7.45996 21.4384 7.49525 21.3693 7.55882C21.3001 7.62239 21.2573 7.70961 21.2494 7.80321C21.2211 8.11195 21.1716 8.41837 21.1014 8.72035L18.8279 6.79362C18.3785 6.41063 17.8074 6.20027 17.217 6.20027C16.6266 6.20027 16.0554 6.41063 15.6061 6.79362L11.8025 10.0172V9.06066C11.8025 8.96121 11.763 8.86582 11.6927 8.7955C11.6223 8.72517 11.527 8.68566 11.4275 8.68566H7.52839C7.42893 8.68566 7.33355 8.72517 7.26322 8.7955C7.1929 8.86582 7.15339 8.96121 7.15339 9.06066V13.9572L4.67852 16.0546C4.20022 16.3886 3.98147 17.8469 5.37707 17.9594H6.99274V29.7003C6.99274 29.7998 7.03225 29.8951 7.10257 29.9655C7.1729 30.0358 7.26828 30.0753 7.36774 30.0753H27.0662C27.1657 30.0753 27.2611 30.0358 27.3314 29.9655C27.4017 29.8951 27.4412 29.7998 27.4412 29.7003V17.9594H29.0569C29.2785 17.9601 29.4949 17.8925 29.6768 17.7659C29.8586 17.6393 29.9971 17.4597 30.0734 17.2517C30.1497 17.0437 30.1601 16.8172 30.1032 16.603C30.0463 16.3888 29.9249 16.1974 29.7554 16.0546ZM21.623 9.60711C21.8252 10.1177 21.9607 10.6177 22.9551 11.1174C22.5127 11.4406 21.9815 11.5032 21.623 12.9716C21.3252 11.6386 20.669 11.3469 20.291 11.1174C20.6482 10.9406 21.3148 10.6282 21.623 9.60711ZM7.90339 9.43566H11.0525V10.6528L7.90339 13.3216V9.43566ZM6.53041 17.2094H5.37707C5.30915 17.2099 5.24271 17.1895 5.18687 17.1508C5.13103 17.1121 5.0885 17.0571 5.06511 16.9933C5.04172 16.9295 5.03861 16.8601 5.0562 16.7945C5.07379 16.7289 5.11123 16.6703 5.16339 16.6268L16.0911 7.36579C17.0856 6.6594 17.8981 7.0344 18.3429 7.36579L20.8612 9.5C20.6898 10.076 20.2009 10.3466 19.9325 10.454L18.106 8.90605C17.858 8.69473 17.5428 8.57866 17.217 8.57866C16.8912 8.57866 16.576 8.69473 16.328 8.90605L6.53041 17.2094ZM14.9923 29.3253H10.8224V24.0735C10.8207 23.7987 10.8734 23.5262 10.9775 23.2718C11.0815 23.0174 11.2348 22.7861 11.4286 22.5911C11.6224 22.3962 11.8528 22.2415 12.1066 22.1359C12.3603 22.0304 12.6325 21.976 12.9073 21.976C13.1822 21.976 13.4544 22.0304 13.7081 22.1359C13.9619 22.2415 14.1923 22.3962 14.3861 22.5911C14.5799 22.7861 14.7332 23.0174 14.8372 23.2718C14.9412 23.5262 14.994 23.7987 14.9923 24.0735V29.3253ZM26.6912 29.3253H15.7423V24.0735C15.7442 23.7 15.6723 23.3298 15.5307 22.9842C15.3891 22.6385 15.1806 22.3243 14.9171 22.0595C14.6537 21.7947 14.3405 21.5845 13.9956 21.4412C13.6507 21.2978 13.2809 21.224 12.9073 21.224C12.5338 21.224 12.164 21.2978 11.8191 21.4412C11.4742 21.5845 11.161 21.7947 10.8976 22.0595C10.6341 22.3243 10.4256 22.6385 10.284 22.9842C10.1424 23.3298 10.0705 23.7 10.0724 24.0735V29.3253H7.74274V17.9594H26.6912L26.6912 29.3253ZM7.69044 17.2094L16.8129 9.47815C16.9256 9.38206 17.0689 9.32928 17.217 9.32928C17.3651 9.32928 17.5084 9.38206 17.6211 9.47815L19.0026 10.649C18.8148 10.6906 18.5127 11.0864 18.9673 11.354C19.3148 11.5239 20.1727 11.7774 20.5355 12.2478C20.8773 12.6073 21.245 14.7154 21.2558 14.84C21.2918 15.2548 21.9543 15.2492 21.9903 14.84C22.0013 14.7155 22.1981 13.7823 22.282 13.4284L26.7435 17.2095L7.69044 17.2094ZM29.0569 17.2094H27.9035L22.5098 12.6383C22.669 12.1281 23.1574 11.8479 23.4595 11.702L29.2706 16.6268C29.5176 16.7878 29.3877 17.2115 29.0569 17.2094Z" fill="#444A54"/>
</svg>
