<svg width="24" height="24" viewBox="0 0 24 24" fill="none" xmlns="http://www.w3.org/2000/svg">
<path d="M17.5033 11.55H19.314L18.0337 10.2697L16.4822 8.7182C16.3065 8.54246 16.3065 8.25754 16.4822 8.0818C16.6579 7.90607 16.9429 7.90607 17.1186 8.0818L20.7186 11.6818C20.803 11.7662 20.8504 11.8807 20.8504 12C20.8504 12.1193 20.803 12.2338 20.7186 12.3182L17.1186 15.9182C16.9429 16.0939 16.6579 16.0939 16.4822 15.9182C16.3065 15.7425 16.3065 15.4575 16.4822 15.2818L18.0337 13.7303L19.314 12.45H17.5033H8.40039C8.15186 12.45 7.95039 12.2485 7.95039 12C7.95039 11.7515 8.15186 11.55 8.40039 11.55L17.5033 11.55ZM3.15039 4.8C3.15039 4.55147 3.35186 4.35 3.60039 4.35C3.84892 4.35 4.05039 4.55147 4.05039 4.8V19.2C4.05039 19.4485 3.84892 19.65 3.60039 19.65C3.35186 19.65 3.15039 19.4485 3.15039 19.2V4.8Z" fill="#626870" stroke="#626870" stroke-width="1.5"/>
</svg>
