<svg width="33" height="32" viewBox="0 0 33 32" fill="none" xmlns="http://www.w3.org/2000/svg">
<path d="M31.5 8.5C31.6326 8.5 31.7598 8.44732 31.8536 8.35355C31.9473 8.25979 32 8.13261 32 8V6C32 5.86739 31.9473 5.74021 31.8536 5.64645C31.7598 5.55268 31.6326 5.5 31.5 5.5H30.65L23.2775 0.584C23.1952 0.52937 23.0987 0.500156 23 0.5H10C9.90126 0.500156 9.80475 0.52937 9.7225 0.584L2.35 5.5H1.5C1.36739 5.5 1.24021 5.55268 1.14645 5.64645C1.05268 5.74021 1 5.86739 1 6V8C1 8.13261 1.05268 8.25979 1.14645 8.35355C1.24021 8.44732 1.36739 8.5 1.5 8.5H2V20.2755C1.69676 20.45 1.44475 20.7013 1.26923 21.0039C1.09372 21.3066 1.00087 21.6501 1 22C1 22.3978 1.15804 22.7794 1.43934 23.0607C1.72064 23.342 2.10218 23.5 2.5 23.5H6.5C6.89782 23.5 7.27936 23.342 7.56066 23.0607C7.84196 22.7794 8 22.3978 8 22C7.99946 21.8312 7.97728 21.6632 7.934 21.5H8.5V23C8.5 23.1326 8.55268 23.2598 8.64645 23.3536C8.74021 23.4473 8.86739 23.5 9 23.5H11C11.1326 23.5 11.2598 23.4473 11.3536 23.3536C11.4473 23.2598 11.5 23.1326 11.5 23V21.5H13.2615L11.5615 25.755C4.669 26.5075 1 28.8095 1 31C1 31.1326 1.05268 31.2598 1.14645 31.3536C1.24021 31.4473 1.36739 31.5 1.5 31.5H7.5C7.63261 31.5 7.75979 31.4473 7.85355 31.3536C7.94732 31.2598 8 31.1326 8 31C8 29.956 11.2335 28.5 16.5 28.5C21.7665 28.5 25 29.956 25 31C25 31.1326 25.0527 31.2598 25.1464 31.3536C25.2402 31.4473 25.3674 31.5 25.5 31.5H31.5C31.6326 31.5 31.7598 31.4473 31.8536 31.3536C31.9473 31.2598 32 31.1326 32 31C32 28.8095 28.331 26.5075 21.4405 25.755L19.7385 21.5H21.5V23C21.5 23.1326 21.5527 23.2598 21.6464 23.3536C21.7402 23.4473 21.8674 23.5 22 23.5H24C24.1326 23.5 24.2598 23.4473 24.3536 23.3536C24.4473 23.2598 24.5 23.1326 24.5 23V21.5H25.066C25.0227 21.6632 25.0005 21.8312 25 22C25 22.3978 25.158 22.7794 25.4393 23.0607C25.7206 23.342 26.1022 23.5 26.5 23.5H30.5C30.8978 23.5 31.2794 23.342 31.5607 23.0607C31.842 22.7794 32 22.3978 32 22C31.9991 21.6501 31.9063 21.3066 31.7308 21.0039C31.5553 20.7013 31.3032 20.45 31 20.2755V8.5H31.5ZM31 7.5H22.8L21.4365 6.5H31V7.5ZM9.5 10.5V9.5H23.5V10.5H9.5ZM16.5 4.12L22.4725 8.5H20.1605L16.7905 6.093C16.7057 6.03248 16.6042 5.99995 16.5 5.99995C16.3958 5.99995 16.2943 6.03248 16.2095 6.093L12.8395 8.5H10.5275L16.5 4.12ZM18.4395 8.5H14.5605L16.5 7.1145L18.4395 8.5ZM10.15 1.5H22.85L28.85 5.5H20.073L16.7955 3.0965C16.7098 3.03369 16.6063 2.99984 16.5 2.99984C16.3937 2.99984 16.2902 3.03369 16.2045 3.0965L12.927 5.5H4.15L10.15 1.5ZM2 6.5H11.5635L10.2 7.5H2V6.5ZM6.5 22.5H2.5C2.36739 22.5 2.24021 22.4473 2.14645 22.3536C2.05268 22.2598 2 22.1326 2 22C1.99997 21.7374 2.10327 21.4853 2.28757 21.2981C2.47187 21.111 2.72239 21.0039 2.985 21C2.998 21 3.051 21.008 3.0635 21.0085C3.14645 21.0148 3.22962 20.9997 3.30508 20.9647C3.38053 20.9297 3.44575 20.8759 3.4945 20.8085C3.54416 20.7421 3.57651 20.6643 3.58864 20.5823C3.60077 20.5002 3.59231 20.4165 3.564 20.3385C3.51296 20.2122 3.4916 20.0759 3.50157 19.9401C3.51153 19.8042 3.55257 19.6725 3.6215 19.555C3.68932 19.4239 3.78413 19.3086 3.89969 19.2167C4.01525 19.1249 4.14895 19.0585 4.292 19.022C4.53439 18.9688 4.78797 19.011 5 19.14C5.07636 19.1844 5.16314 19.2079 5.2515 19.2079C5.33986 19.2079 5.42663 19.1844 5.503 19.14C5.71862 19.0087 5.97735 18.9677 6.223 19.026C6.41062 19.0717 6.58154 19.1694 6.71608 19.3079C6.85062 19.4464 6.94332 19.6201 6.9835 19.809C7.01295 19.9608 7.00635 20.1174 6.96423 20.2661C6.92211 20.4149 6.84565 20.5517 6.741 20.6655C6.65836 20.7573 6.61263 20.8765 6.61263 21C6.61263 21.1235 6.65836 21.2427 6.741 21.3345C6.90716 21.5164 6.99952 21.7537 7 22C7 22.1326 6.94732 22.2598 6.85355 22.3536C6.75979 22.4473 6.63261 22.5 6.5 22.5ZM7.927 20.5C8.00447 20.2148 8.01745 19.9159 7.965 19.625C7.88944 19.2451 7.70657 18.8949 7.43807 18.6157C7.16956 18.3366 6.82666 18.1402 6.45 18.05C6.04953 17.955 5.62922 17.99 5.25 18.15C4.88003 17.995 4.47122 17.9582 4.0795 18.0445C3.65755 18.1432 3.27887 18.3758 3 18.7075V8.5H8.836L8.7045 8.5965C8.6411 8.64295 8.58954 8.70369 8.55401 8.7738C8.51848 8.84391 8.49997 8.9214 8.5 9V20.5H7.927ZM9.5 22.5V11.5H10.5V22.5H9.5ZM19.5 20.5H18.5V16.5C18.5 15.9696 18.2893 15.4609 17.9142 15.0858C17.5391 14.7107 17.0304 14.5 16.5 14.5C15.9696 14.5 15.4609 14.7107 15.0858 15.0858C14.7107 15.4609 14.5 15.9696 14.5 16.5V20.5H13.5V16.5C13.5 15.7044 13.8161 14.9413 14.3787 14.3787C14.9413 13.8161 15.7044 13.5 16.5 13.5C17.2956 13.5 18.0587 13.8161 18.6213 14.3787C19.1839 14.9413 19.5 15.7044 19.5 16.5V20.5ZM17.5 20.5H15.5V16.5C15.5 16.2348 15.6054 15.9804 15.7929 15.7929C15.9804 15.6054 16.2348 15.5 16.5 15.5C16.7652 15.5 17.0196 15.6054 17.2071 15.7929C17.3946 15.9804 17.5 16.2348 17.5 16.5V20.5ZM30.8935 30.5H25.9175C25.258 28.55 20.7555 27.5 16.5 27.5C12.2445 27.5 7.742 28.55 7.0825 30.5H2.1065C2.9425 28.517 8.62 26.5 16.5 26.5C24.38 26.5 30.0575 28.517 30.8935 30.5ZM20.321 25.65C19.132 25.5535 17.86 25.5 16.5 25.5C15.14 25.5 13.868 25.5535 12.679 25.65L14.3385 21.5H18.6615L20.321 25.65ZM20.5 20.5V16.5C20.5 15.4391 20.0786 14.4217 19.3284 13.6716C18.5783 12.9214 17.5609 12.5 16.5 12.5C15.4391 12.5 14.4217 12.9214 13.6716 13.6716C12.9214 14.4217 12.5 15.4391 12.5 16.5V20.5H11.5V11.5H21.5V20.5H20.5ZM22.5 22.5V11.5H23.5V22.5H22.5ZM30.5 22.5H26.5C26.3674 22.5 26.2402 22.4473 26.1464 22.3536C26.0527 22.2598 26 22.1326 26 22C26.0009 21.7535 26.0938 21.5161 26.2605 21.3345C26.3431 21.2427 26.3889 21.1235 26.3889 21C26.3889 20.8765 26.3431 20.7573 26.2605 20.6655C26.1558 20.5517 26.0794 20.4149 26.0373 20.2661C25.9951 20.1174 25.9885 19.9608 26.018 19.809C26.0582 19.6201 26.1509 19.4464 26.2854 19.3079C26.42 19.1694 26.5909 19.0717 26.7785 19.026C26.8511 19.0088 26.9254 19.0001 27 19C27.1762 19.001 27.3489 19.0493 27.5 19.14C27.5764 19.1844 27.6631 19.2079 27.7515 19.2079C27.8399 19.2079 27.9266 19.1844 28.003 19.14C28.2144 19.0112 28.4673 18.9691 28.709 19.0225C28.852 19.059 28.9857 19.1254 29.1013 19.2172C29.2169 19.3091 29.3117 19.4244 29.3795 19.5555C29.4484 19.673 29.4895 19.8047 29.4994 19.9406C29.5094 20.0764 29.488 20.2127 29.437 20.339C29.4087 20.417 29.4002 20.5007 29.4124 20.5828C29.4245 20.6648 29.4568 20.7426 29.5065 20.809C29.5553 20.8764 29.6205 20.9301 29.696 20.9651C29.7714 21.0001 29.8546 21.0152 29.9375 21.009C29.95 21.009 29.9875 21.002 30.0015 21.0005C30.2667 21.0005 30.5211 21.1059 30.7086 21.2934C30.8961 21.4809 31.0015 21.7353 31.0015 22.0005C31.0014 22.0662 30.9884 22.1313 30.9632 22.192C30.9379 22.2527 30.9009 22.3079 30.8543 22.3543C30.8078 22.4007 30.7525 22.4374 30.6917 22.4624C30.6309 22.4874 30.5657 22.5002 30.5 22.5ZM30 18.7075C29.721 18.3762 29.3423 18.144 28.9205 18.0455C28.5289 17.9584 28.12 17.9949 27.75 18.15C27.3708 17.9898 26.9504 17.9548 26.55 18.05C26.1733 18.1402 25.8304 18.3366 25.5619 18.6157C25.2934 18.8949 25.1106 19.2451 25.035 19.625C24.9825 19.9159 24.9955 20.2148 25.073 20.5H24.5V9C24.5 8.9214 24.4815 8.84391 24.446 8.7738C24.4105 8.70369 24.3589 8.64295 24.2955 8.5965L24.164 8.5H30V18.7075Z" fill="#444A54"/>
<path d="M5.5 9.5C5.10218 9.5 4.72064 9.65804 4.43934 9.93934C4.15804 10.2206 4 10.6022 4 11V14C4 14.1326 4.05268 14.2598 4.14645 14.3536C4.24021 14.4473 4.36739 14.5 4.5 14.5H6.5C6.63261 14.5 6.75979 14.4473 6.85355 14.3536C6.94732 14.2598 7 14.1326 7 14V11C7 10.6022 6.84196 10.2206 6.56066 9.93934C6.27936 9.65804 5.89782 9.5 5.5 9.5ZM6 13.5H5V11C5 10.8674 5.05268 10.7402 5.14645 10.6464C5.24021 10.5527 5.36739 10.5 5.5 10.5C5.63261 10.5 5.75979 10.5527 5.85355 10.6464C5.94732 10.7402 6 10.8674 6 11V13.5Z" fill="#444A54"/>
<path d="M26.5 14.5H28.5C28.6326 14.5 28.7598 14.4473 28.8536 14.3536C28.9473 14.2598 29 14.1326 29 14V11C29 10.6022 28.842 10.2206 28.5607 9.93934C28.2794 9.65804 27.8978 9.5 27.5 9.5C27.1022 9.5 26.7206 9.65804 26.4393 9.93934C26.158 10.2206 26 10.6022 26 11V14C26 14.1326 26.0527 14.2598 26.1464 14.3536C26.2402 14.4473 26.3674 14.5 26.5 14.5ZM27 11C27 10.8674 27.0527 10.7402 27.1464 10.6464C27.2402 10.5527 27.3674 10.5 27.5 10.5C27.6326 10.5 27.7598 10.5527 27.8536 10.6464C27.9473 10.7402 28 10.8674 28 11V13.5H27V11Z" fill="#444A54"/>
</svg>
