<svg width="24" height="24" viewBox="0 0 24 24" fill="none" xmlns="http://www.w3.org/2000/svg">
<g clip-path="url(#clip0_756_4260)">
<path d="M19.3333 12.6528H4.66667C4.29867 12.6528 4 12.3541 4 11.9861C4 11.6181 4.29867 11.3195 4.66667 11.3195H19.3333C19.7013 11.3195 20 11.6181 20 11.9861C20 12.3541 19.7013 12.6528 19.3333 12.6528Z" fill="#151D29"/>
<path d="M19.3333 7.54171H4.66667C4.29867 7.54171 4 7.24304 4 6.87504C4 6.50704 4.29867 6.20837 4.66667 6.20837H19.3333C19.7013 6.20837 20 6.50704 20 6.87504C20 7.24304 19.7013 7.54171 19.3333 7.54171Z" fill="#151D29"/>
<path d="M19.3333 17.7639H4.66667C4.29867 17.7639 4 17.4652 4 17.0972C4 16.7292 4.29867 16.4305 4.66667 16.4305H19.3333C19.7013 16.4305 20 16.7292 20 17.0972C20 17.4652 19.7013 17.7639 19.3333 17.7639Z" fill="#151D29"/>
</g>
<defs>
<clipPath id="clip0_756_4260">
<rect width="16" height="16" fill="white" transform="translate(4 4)"/>
</clipPath>
</defs>
</svg>
