<svg width="24" height="24" viewBox="0 0 24 24" fill="none" xmlns="http://www.w3.org/2000/svg">
<path d="M9.81243 19.8888C9.81244 19.889 9.81244 19.8892 9.81245 19.8894C9.81246 19.8887 9.81247 19.8878 9.81248 19.8869L9.81243 19.8888Z" fill="#626870" stroke="#626870" stroke-width="4"/>
<path d="M18.3422 16.9312L16.9688 18.3L16.2516 17.5875L15.5344 16.875H15.2859C15.0656 16.875 15.0188 16.8937 14.8781 17.0344C14.7375 17.175 14.7188 17.2219 14.7188 17.4422V17.6906L15.7172 18.6891L16.7156 19.6875H16.9688H17.2266L18.8766 18.0328L20.5312 16.3828V16.1297C20.5312 15.9094 20.5125 15.8625 20.3719 15.7219C20.2313 15.5812 20.1844 15.5625 19.9641 15.5625H19.7156L18.3422 16.9312Z" fill="#626870"/>
<path d="M7.84688 4.09687L7.6875 4.25625V6.375V8.49375L7.84688 8.65312L8.00625 8.8125H10.875H13.7438L13.9031 8.65312L14.0625 8.49375V6.375V4.25625L13.9031 4.09687C13.7625 3.95625 13.7156 3.9375 13.5094 3.9375C13.2844 3.9375 13.2422 3.96094 12.7172 4.35C12.4125 4.575 12.1359 4.78125 12.1031 4.8C12.0563 4.82812 11.8969 4.70156 11.5828 4.3875L11.1234 3.9375H10.875H10.6266L10.1672 4.3875C9.85313 4.70156 9.69375 4.82812 9.64688 4.8C9.61406 4.78125 9.3375 4.575 9.03281 4.35C8.50781 3.96094 8.46563 3.9375 8.24063 3.9375C8.03438 3.9375 7.9875 3.95625 7.84688 4.09687ZM11.325 5.76562C11.7516 6.18281 11.7563 6.1875 11.9906 6.1875C12.2203 6.1875 12.3797 6.09844 12.8813 5.70469C12.9234 5.67187 12.9375 5.86875 12.9375 6.675V7.6875H10.875H8.8125V6.675C8.8125 5.86875 8.82656 5.67187 8.87344 5.70469C9.37031 6.10312 9.52969 6.1875 9.76406 6.1875C9.99844 6.1875 10.0031 6.18281 10.425 5.76562C10.6594 5.53594 10.8609 5.34375 10.8703 5.34375C10.8844 5.34375 11.0859 5.53125 11.325 5.76562Z" fill="#626870"/>
<path d="M10.4717 11.5969C10.3264 11.7422 10.3124 11.7797 10.3124 12.0328C10.3124 12.3047 10.3077 12.3141 10.1483 12.3891C9.89049 12.5109 9.55767 12.8437 9.44049 13.1016C9.27642 13.4484 9.28111 13.9969 9.44986 14.3344C9.65611 14.7469 10.0639 15.0281 10.6967 15.1875C11.0905 15.2906 11.2499 15.3891 11.2499 15.5297C11.2499 15.6609 11.2077 15.7219 11.0764 15.7922C10.8842 15.8906 10.7717 15.8531 10.5467 15.6094C10.3405 15.3891 10.317 15.375 10.092 15.375C9.80142 15.375 9.59049 15.525 9.52017 15.7781C9.42174 16.1344 9.71236 16.6172 10.1717 16.8516C10.303 16.9219 10.3124 16.9406 10.3124 17.2078C10.3124 17.4703 10.3264 17.5078 10.4717 17.6531C10.7061 17.8875 11.0436 17.8875 11.278 17.6531C11.4233 17.5078 11.4374 17.4703 11.4374 17.2172C11.4374 16.9453 11.442 16.9359 11.6014 16.8609C11.8545 16.7391 12.1686 16.425 12.3045 16.1578C12.4733 15.8156 12.4733 15.2625 12.2999 14.9156C12.0936 14.5031 11.6858 14.2219 11.053 14.0625C10.6592 13.9594 10.4999 13.8609 10.4999 13.7203C10.4999 13.5891 10.542 13.5281 10.6733 13.4578C10.8655 13.3594 10.978 13.3969 11.203 13.6406C11.4092 13.8609 11.4327 13.875 11.6577 13.875C11.9483 13.875 12.1592 13.725 12.2295 13.4719C12.328 13.1156 12.0374 12.6328 11.578 12.3984C11.4467 12.3281 11.4374 12.3094 11.4374 12.0422C11.4374 11.7797 11.4233 11.7422 11.278 11.5969C11.1374 11.4562 11.0905 11.4375 10.8749 11.4375C10.6592 11.4375 10.6124 11.4562 10.4717 11.5969Z" fill="#626870"/>
</svg>
