<svg width="24" height="24" viewBox="0 0 24 24" fill="none" xmlns="http://www.w3.org/2000/svg">
<path d="M5.46104 2.86875C4.8376 2.98594 4.1626 3.4875 3.85323 4.06406C3.54854 4.64062 3.5626 4.28437 3.5626 10.875C3.5626 16.5234 3.56729 16.8703 3.64698 17.1609C3.8626 17.9297 4.47666 18.5625 5.24073 18.7969C5.53135 18.8859 5.68135 18.8906 9.47354 18.8906H13.4064L13.472 19.0547C13.6829 19.5562 14.2595 20.2312 14.7564 20.5594C15.5438 21.0844 16.5517 21.2953 17.447 21.1219C18.2532 20.9672 18.7782 20.6859 19.3595 20.1094C20.1001 19.3687 20.4376 18.5672 20.4376 17.5312C20.4376 16.4953 20.1001 15.6937 19.3595 14.9531C18.9095 14.5078 18.5251 14.2594 17.9907 14.0812L17.6298 13.9641L17.6157 9.36094L17.6017 4.75781L17.4798 4.44375C17.236 3.81562 16.8376 3.36094 16.3032 3.08906C15.7407 2.80781 15.9048 2.8125 10.5704 2.81719C7.72041 2.82187 5.59698 2.84062 5.46104 2.86875ZM15.8251 3.97031C16.0876 4.11094 16.4298 4.5 16.5189 4.76719C16.5845 4.95937 16.5939 5.48906 16.5939 9.42656V13.8703L16.4204 13.8984C15.1688 14.0812 14.2407 14.6859 13.6454 15.6937C13.5423 15.8672 13.4064 16.1719 13.336 16.3734C13.2142 16.7438 13.1157 17.4844 13.1579 17.7562L13.1813 17.9062L9.39385 17.8969L5.60166 17.8828L5.38604 17.775C5.1001 17.6344 4.85635 17.3953 4.69698 17.0953L4.57041 16.8516L4.55635 10.9734C4.54229 4.47187 4.52823 4.80937 4.84229 4.39687C5.00635 4.18594 5.27354 3.98437 5.50791 3.9C5.60635 3.86719 7.19541 3.85312 10.6407 3.85781L15.6329 3.86719L15.8251 3.97031ZM17.4564 14.9812C17.911 15.0984 18.272 15.3141 18.6564 15.7031C19.397 16.4391 19.6267 17.4187 19.2892 18.3891C19.1438 18.8062 18.9517 19.0969 18.5954 19.4391C18.0892 19.9266 17.5032 20.1562 16.7673 20.1562C15.3517 20.1562 14.1564 18.9562 14.1564 17.5312C14.1564 16.3734 14.9954 15.2859 16.1298 14.9812C16.4673 14.8875 17.1001 14.8875 17.4564 14.9812Z" fill="#726758"/>
<path d="M6.87652 6.375C6.73121 6.4875 6.64215 6.74062 6.68433 6.90937C6.6984 6.975 6.77808 7.08281 6.85308 7.14844L6.99371 7.26562H10.575C12.9468 7.26562 14.1937 7.25156 14.2546 7.21875C14.3718 7.15312 14.4843 6.92812 14.4843 6.74531C14.4843 6.64219 14.4375 6.55312 14.325 6.44062L14.1656 6.28125H10.5796C7.05933 6.28125 6.99371 6.28125 6.87652 6.375Z" fill="#726758"/>
<path d="M6.93793 9.06094C6.77855 9.14062 6.64261 9.43125 6.68011 9.60469C6.69418 9.67969 6.76449 9.79688 6.83011 9.8625L6.95199 9.98438H10.5567C12.9426 9.98438 14.1942 9.97031 14.2551 9.9375C14.3723 9.87187 14.4848 9.64687 14.4848 9.46406C14.4848 9.36094 14.4379 9.27187 14.3254 9.15937L14.1661 9H10.6129C7.87074 9 7.02699 9.01406 6.93793 9.06094Z" fill="#726758"/>
<path d="M6.90927 11.8078C6.61396 11.9906 6.5999 12.45 6.88115 12.6422C6.99834 12.7219 7.1999 12.7266 10.4061 12.7406C12.2765 12.75 13.8936 12.7406 14.0061 12.7266C14.2921 12.6844 14.4421 12.5391 14.4702 12.2766C14.4936 12.0844 14.4796 12.0422 14.353 11.9016L14.2124 11.7422L10.6311 11.7281C7.16709 11.7188 7.0499 11.7188 6.90927 11.8078Z" fill="#726758"/>
<path d="M6.95156 14.5078C6.79688 14.5734 6.65625 14.7844 6.65625 14.9531C6.65625 15.1125 6.7875 15.3187 6.9375 15.3984C7.05469 15.4594 7.45313 15.4688 9.80625 15.4688C12.3984 15.4688 12.5484 15.4641 12.6844 15.3797C13.0125 15.1781 12.9984 14.6906 12.6562 14.5219C12.5063 14.4422 12.2719 14.4375 9.79688 14.4375C7.60781 14.4422 7.07344 14.4516 6.95156 14.5078Z" fill="#726758"/>
<path d="M16.4484 15.7453L16.3125 15.8812V16.5328V17.1797L15.9609 17.3156C15.5625 17.4703 15.4219 17.6062 15.4219 17.8453C15.4219 18.1594 15.6281 18.375 15.9188 18.375C16.1344 18.375 17.0297 18 17.1703 17.8547L17.2969 17.7188V16.8V15.8812L17.1609 15.7453C17.0484 15.6328 16.9828 15.6094 16.8047 15.6094C16.6266 15.6094 16.5609 15.6328 16.4484 15.7453Z" fill="#726758"/>
</svg>
