<svg width="14" height="15" viewBox="0 0 14 15" fill="none" xmlns="http://www.w3.org/2000/svg">
<path d="M7.27263 1.55822C7.43395 1.61564 7.62809 1.82072 7.69099 1.99299C7.90153 2.58634 7.34372 3.14963 6.74216 2.94455C6.56169 2.88166 6.36481 2.68478 6.30192 2.49884C6.21442 2.23634 6.28278 1.92736 6.46872 1.72775C6.64645 1.54181 7.01286 1.46252 7.27263 1.55822Z" fill="#FFC60B"/>
<path d="M7.17227 3.80858C7.40195 3.866 7.57969 3.99452 7.76016 4.23241C7.88867 4.39921 9.05078 5.85389 9.36523 6.23671C9.55938 6.47186 9.43359 6.47186 10.3906 6.23671C11.2219 6.03436 11.2848 6.02616 11.5363 6.10272C11.9 6.21483 12.1406 6.54296 12.1406 6.93671C12.1406 7.07069 12.0914 7.28397 11.9191 7.88553C11.7988 8.3121 11.5637 9.14061 11.3969 9.7285C11.2301 10.3137 11.0715 10.8387 11.0441 10.8933C10.9785 11.0246 10.8281 11.1531 10.6996 11.1887C10.5547 11.2297 3.44531 11.2297 3.30039 11.1887C3.16914 11.1531 3.00234 11.0055 2.94492 10.8715C2.91758 10.8141 2.69609 10.0594 2.45 9.1953C2.20391 8.33124 1.96875 7.51366 1.92773 7.37968C1.75273 6.81093 1.90039 6.37069 2.33242 6.16288C2.63047 6.02069 2.68789 6.02343 3.53008 6.23124C3.94297 6.32968 4.30938 6.41991 4.34766 6.42538C4.41055 6.43632 4.48711 6.35155 5.11328 5.56678C5.49609 5.08827 5.82148 4.68358 5.83789 4.66717C5.85156 4.65077 5.89258 4.60155 5.92539 4.5578C6.25352 4.1285 6.39297 3.98358 6.5625 3.89608C6.75938 3.79764 6.99453 3.76483 7.17227 3.80858Z" fill="#FFC60B"/>
<path d="M12.7285 4.07112C12.9883 4.20237 13.125 4.43206 13.125 4.73284C13.1223 5.15393 12.827 5.45472 12.4141 5.46018C12.1734 5.46292 12.0121 5.39729 11.859 5.23323C11.5855 4.94065 11.5883 4.50589 11.8645 4.20784C12.0559 3.99729 12.4578 3.9344 12.7285 4.07112Z" fill="#FFC60B"/>
<path d="M1.93012 4.06561C2.36215 4.26795 2.47973 4.8449 2.15981 5.21131C1.89457 5.51209 1.47075 5.55037 1.14262 5.30428C0.789886 5.03904 0.778948 4.44295 1.12075 4.16678C1.27934 4.041 1.39418 3.99998 1.60473 3.99998C1.74145 3.99998 1.82621 4.01639 1.93012 4.06561Z" fill="#FFC60B"/>
<path d="M10.7078 12.1922C10.9184 12.2688 11.1016 12.5258 11.1016 12.75C11.1016 12.9606 10.9539 13.1875 10.7516 13.2859C10.6559 13.3352 10.4945 13.3379 7.05742 13.3461C3.05703 13.3543 3.27305 13.3625 3.08164 13.1711C2.84375 12.9332 2.84922 12.5559 3.09805 12.3152C3.27578 12.1402 3.06797 12.1484 7.01094 12.1512C10.0844 12.1512 10.6121 12.1594 10.7078 12.1922Z" fill="#FFC60B"/>
</svg>
