<svg width="24" height="21" viewBox="0 0 24 21" fill="none" xmlns="http://www.w3.org/2000/svg">
<path d="M8.4375 4.5V1.5C8.4375 1.35082 8.49677 1.20774 8.60225 1.10225C8.70774 0.996763 8.85082 0.9375 9 0.9375C9.14919 0.9375 9.29226 0.996763 9.39775 1.10225C9.50324 1.20774 9.5625 1.35082 9.5625 1.5V4.5C9.5625 4.64918 9.50324 4.79226 9.39775 4.89775C9.29226 5.00324 9.14919 5.0625 9 5.0625C8.85082 5.0625 8.70774 5.00324 8.60225 4.89775C8.49677 4.79226 8.4375 4.64918 8.4375 4.5ZM12 5.0625C12.1492 5.0625 12.2923 5.00324 12.3978 4.89775C12.5032 4.79226 12.5625 4.64918 12.5625 4.5V1.5C12.5625 1.35082 12.5032 1.20774 12.3978 1.10225C12.2923 0.996763 12.1492 0.9375 12 0.9375C11.8508 0.9375 11.7077 0.996763 11.6023 1.10225C11.4968 1.20774 11.4375 1.35082 11.4375 1.5V4.5C11.4375 4.64918 11.4968 4.79226 11.6023 4.89775C11.7077 5.00324 11.8508 5.0625 12 5.0625ZM15 5.0625C15.1492 5.0625 15.2923 5.00324 15.3978 4.89775C15.5032 4.79226 15.5625 4.64918 15.5625 4.5V1.5C15.5625 1.35082 15.5032 1.20774 15.3978 1.10225C15.2923 0.996763 15.1492 0.9375 15 0.9375C14.8508 0.9375 14.7077 0.996763 14.6023 1.10225C14.4968 1.20774 14.4375 1.35082 14.4375 1.5V4.5C14.4375 4.64918 14.4968 4.79226 14.6023 4.89775C14.7077 5.00324 14.8508 5.0625 15 5.0625ZM23.5875 9.45L20.8125 11.5312V17.25C20.8125 17.9959 20.5162 18.7113 19.9887 19.2387C19.4613 19.7662 18.7459 20.0625 18 20.0625H6C5.25408 20.0625 4.53871 19.7662 4.01126 19.2387C3.48382 18.7113 3.1875 17.9959 3.1875 17.25V11.5312L0.412502 9.45C0.293155 9.36049 0.214254 9.22723 0.193156 9.07955C0.172058 8.93186 0.210492 8.78185 0.300002 8.6625C0.389513 8.54315 0.522768 8.46425 0.670453 8.44315C0.818138 8.42206 0.968155 8.46049 1.0875 8.55L3.1875 10.125V8.25C3.1875 7.9019 3.32578 7.56806 3.57192 7.32192C3.81807 7.07578 4.15191 6.9375 4.5 6.9375H19.5C19.8481 6.9375 20.1819 7.07578 20.4281 7.32192C20.6742 7.56806 20.8125 7.9019 20.8125 8.25V10.125L22.9125 8.55C23.0319 8.46049 23.1819 8.42206 23.3296 8.44315C23.4772 8.46425 23.6105 8.54315 23.7 8.6625C23.7895 8.78185 23.8279 8.93186 23.8068 9.07955C23.7858 9.22723 23.7069 9.36049 23.5875 9.45Z" fill="#151D29"/>
</svg>
