<svg width="25" height="24" viewBox="0 0 25 24" fill="none" xmlns="http://www.w3.org/2000/svg">
<path d="M3.35825 17.1507L2 16.2064L6.8 8.90476L9.79275 12.2381L13.7832 6.07929L16.5083 9.94452C16.2028 9.97087 15.9097 10.0198 15.6292 10.0912C15.3486 10.1626 15.0694 10.2513 14.7917 10.3571L13.8583 9L10.049 14.9126L7.01675 11.5555L3.35825 17.1507ZM22.8083 22L19.5333 18.881C19.1889 19.1138 18.8126 19.291 18.4042 19.4126C17.9959 19.5344 17.5751 19.5952 17.1417 19.5952C15.9379 19.5952 14.9148 19.1938 14.0723 18.391C13.2296 17.5881 12.8082 16.6133 12.8082 15.4664C12.8082 14.3194 13.2297 13.3452 14.0727 12.5436C14.9157 11.742 15.9394 11.3412 17.1438 11.3412C18.3479 11.3412 19.3708 11.7425 20.2125 12.545C21.0542 13.3474 21.475 14.3218 21.475 15.4683C21.475 15.881 21.4083 16.2818 21.275 16.6707C21.1417 17.0596 20.9583 17.4283 20.725 17.7769L24 20.865L22.8083 22ZM17.1393 18.0079C17.8853 18.0079 18.5166 17.7626 19.0333 17.2721C19.5499 16.7815 19.8083 16.181 19.8083 15.4705C19.8083 14.76 19.5508 14.1587 19.0357 13.6667C18.5206 13.1746 17.89 12.9286 17.144 12.9286C16.398 12.9286 15.7667 13.1739 15.25 13.6645C14.7333 14.155 14.475 14.7555 14.475 15.466C14.475 16.1764 14.7326 16.7777 15.2477 17.2698C15.7627 17.7618 16.3933 18.0079 17.1393 18.0079ZM19.1168 10.2619C18.8444 10.156 18.5624 10.0793 18.2708 10.0317C17.9791 9.98405 17.6777 9.94706 17.3667 9.92071L22.6418 2L24 2.94452L19.1168 10.2619Z" fill="#E8EAED"/>
</svg>
