<svg width="33" height="32" viewBox="0 0 33 32" fill="none" xmlns="http://www.w3.org/2000/svg">
<g clip-path="url(#clip0_394_3818)">
<path d="M32 27H29.955V26.405C30.772 26.2153 31.3477 25.4837 31.34 24.645C31.34 24.595 30.935 19.645 29.59 19.645C28.245 19.645 27.8399 24.615 27.8399 24.645C27.8323 25.4837 28.4079 26.2153 29.225 26.405V27H25.725V18.465L27.2999 20.33C27.7149 20.83 28.45 20.145 28.0299 19.67L14.94 4.16997C14.8463 4.06337 14.7119 4.00159 14.57 4C14.4348 4.00476 14.3064 4.06006 14.21 4.15498L9.3 9.5H2.92502C2.64889 9.5 2.42502 9.72387 2.42502 10V27H1C0.723873 27 0.5 27.2239 0.5 27.5C0.5 27.7761 0.723873 28 1 28H32C32.2761 28 32.5 27.7761 32.5 27.5C32.5 27.2239 32.2761 27 32 27ZM28.555 24.645C28.555 23.72 29.13 20.82 29.555 20.4C30 20.82 30.555 23.72 30.555 24.645C30.5654 25.0835 30.3022 25.4822 29.895 25.645C29.895 25.34 30.02 24.645 29.53 24.645C29.0399 24.645 29.185 25.34 29.165 25.645C28.7841 25.4611 28.5499 25.0675 28.57 24.645H28.555ZM24.74 18V27H17.955V18H24.74ZM14.545 5.24502L24.5 17H13.105V10C13.105 9.72387 12.8811 9.5 12.605 9.5H10.605L14.545 5.24502ZM3.41003 10.5H12.135V27H11.1651V13C11.1651 12.7239 10.9412 12.5 10.6651 12.5H6.32C6.04387 12.5 5.82 12.7239 5.82 13V27H3.41003V10.5ZM10.195 22.5H6.80502V13.5H10.195V22.5ZM6.80502 27V23.5H10.195V27H6.80502ZM13.105 27V18H17V27H13.105Z" fill="#444A54"/>
</g>
<defs>
<clipPath id="clip0_394_3818">
<rect width="32" height="32" fill="white" transform="translate(0.5)"/>
</clipPath>
</defs>
</svg>
