<svg width="34" height="24" viewBox="0 0 34 24" fill="none" xmlns="http://www.w3.org/2000/svg">
<path d="M8.66667 22C8.22222 22 7.83333 21.8456 7.5 21.5369C7.16667 21.2281 7 20.8679 7 20.4562V15.3617L10.75 11.528L11.9444 12.6343L8.66667 15.9535H25.3333L22.25 12.7115L23.4444 11.6051L27 15.3617V20.4562C27 20.8679 26.8333 21.2281 26.5 21.5369C26.1667 21.8456 25.7778 22 25.3333 22H8.66667ZM8.66667 20.4562H25.3333V17.4973H8.66667V20.4562ZM15.9444 14.1524L11.5278 10.0614C11.1759 9.73544 11.0185 9.37094 11.0556 8.96784C11.0926 8.56474 11.2778 8.20881 11.6111 7.90005L17.5 2.44532C17.8135 2.16127 18.2021 2.01306 18.6658 2.00071C19.1294 1.98836 19.5278 2.13657 19.8611 2.44532L24.2778 6.53637C24.5926 6.82797 24.7546 7.17533 24.7639 7.57843C24.7731 7.98153 24.5926 8.35461 24.2222 8.69767L18.3333 14.1524C18.0185 14.444 17.6296 14.5984 17.1667 14.6155C16.7037 14.6327 16.2963 14.4783 15.9444 14.1524ZM22.8611 7.53983L18.6944 3.68036L12.9167 9.03216L17.0833 12.8916L22.8611 7.53983Z" fill="#E9E9E9"/>
</svg>
